<?xml version="1.0" encoding="utf-8"?>
<!-- Generator: Adobe Illustrator 23.0.1, SVG Export Plug-In . SVG Version: 6.00 Build 0)  -->
<svg version="1.1" id="Capa_1" xmlns="http://www.w3.org/2000/svg" xmlns:xlink="http://www.w3.org/1999/xlink" x="0px" y="0px"
	 viewBox="0 0 233 222" style="enable-background:new 0 0 233 222;" xml:space="preserve">
<style type="text/css">
	.st0{fill:#FFFFFF;}
</style>
<g>
	<g>
		<path class="st0" d="M27.5,133.6c-0.4,0.2-0.8,0.4-1.4,0.5s-1.1,0.2-1.7,0.2c-1.6,0-2.9-0.4-3.8-1.2s-1.3-2-1.3-3.6v-4.2h-1.8V122
			h1.8v-3.3h4.4v3.3h2.9v3.3h-2.9v4.2c0,0.4,0.1,0.8,0.4,1.1c0.2,0.3,0.6,0.4,1,0.4c0.5,0,1-0.1,1.3-0.4L27.5,133.6z"/>
		<path class="st0" d="M43.7,121.6v12.5h-4.2v-1.3c-0.5,0.5-1,0.9-1.7,1.2c-0.6,0.3-1.3,0.4-2.1,0.4c-1.6,0-2.9-0.5-3.9-1.4
			c-1-1-1.4-2.4-1.4-4.3v-7h4.4v6.3c0,0.9,0.2,1.6,0.5,2.1s0.9,0.6,1.5,0.6c0.7,0,1.3-0.2,1.7-0.7s0.7-1.2,0.7-2.2v-6h4.5V121.6z"/>
		<path class="st0" d="M49.3,119.6h7.8v21.5h13.2v6.2h-21V119.6z"/>
		<path class="st0" d="M98,125.8v21.5h-7.2V145c-0.8,0.9-1.7,1.5-2.9,2c-1.1,0.4-2.3,0.7-3.5,0.7c-2.8,0-5-0.8-6.6-2.5
			c-1.7-1.6-2.5-4.1-2.5-7.4v-12h7.5v10.8c0,1.6,0.3,2.8,0.9,3.5s1.5,1.1,2.7,1.1s2.2-0.4,2.9-1.2s1.1-2.1,1.1-3.8v-10.3H98V125.8z"
			/>
		<path class="st0" d="M128.3,125.8v17.6c0,4-1.1,7-3.3,9c-2.2,2-5.3,3-9.4,3c-2.1,0-4.1-0.2-5.9-0.7s-3.4-1.2-4.7-2.1l2.7-5.3
			c0.9,0.7,2,1.3,3.3,1.7s2.6,0.6,3.9,0.6c2,0,3.4-0.4,4.4-1.3s1.4-2.2,1.4-3.9v-0.7c-1.5,1.7-3.6,2.5-6.4,2.5
			c-1.9,0-3.7-0.4-5.3-1.3c-1.6-0.9-2.9-2.1-3.8-3.6c-1-1.6-1.4-3.4-1.4-5.4s0.5-3.8,1.4-5.4c1-1.6,2.2-2.8,3.8-3.6
			c1.6-0.9,3.4-1.3,5.3-1.3c3.1,0,5.3,1,6.7,3V126h7.3V125.8z M119.5,139c0.9-0.8,1.3-1.9,1.3-3.2s-0.4-2.3-1.3-3.2
			c-0.9-0.8-2-1.2-3.4-1.2s-2.5,0.4-3.4,1.2s-1.3,1.9-1.3,3.2s0.4,2.4,1.3,3.2s2,1.2,3.4,1.2S118.6,139.8,119.5,139z"/>
		<path class="st0" d="M152.8,127.9c1.9,1.6,2.8,4.1,2.8,7.5v11.9h-7v-2.8c-1.1,2.1-3.2,3.1-6.3,3.1c-1.7,0-3.1-0.3-4.3-0.9
			c-1.2-0.6-2.1-1.4-2.8-2.4c-0.6-1-0.9-2.1-0.9-3.4c0-2,0.8-3.6,2.3-4.7c1.6-1.1,4-1.7,7.2-1.7h4.3c-0.1-2.3-1.7-3.4-4.6-3.4
			c-1,0-2.1,0.2-3.1,0.5s-2,0.8-2.7,1.4l-2.5-5.1c1.2-0.8,2.6-1.4,4.3-1.8s3.4-0.7,5.1-0.7C148.2,125.5,150.9,126.3,152.8,127.9z
			 M146.7,142.3c0.7-0.4,1.1-1,1.4-1.9v-1.9h-3.3c-2.2,0-3.3,0.7-3.3,2.2c0,0.7,0.3,1.2,0.8,1.6s1.2,0.6,2.1,0.6
			C145.3,142.9,146,142.7,146.7,142.3z"/>
		<path class="st0" d="M172.9,126.2c1.2-0.5,2.6-0.7,4.2-0.7v6.8c-0.7-0.1-1.3-0.1-1.7-0.1c-1.6,0-2.9,0.4-3.8,1.3
			c-0.9,0.9-1.4,2.2-1.4,4v9.9h-7.5v-21.5h7.2v2.6C170.7,127.4,171.7,126.7,172.9,126.2z"/>
		<path class="st0" d="M194.4,145.3h-9.1c0.2,0.6,0.5,1.1,1.1,1.5c0.5,0.3,1.2,0.5,2,0.5c0.6,0,1.1-0.1,1.6-0.3
			c0.4-0.2,0.9-0.4,1.3-0.8l2.3,2.4c-1.2,1.4-3,2-5.3,2c-1.5,0-2.7-0.3-3.9-0.8c-1.1-0.6-2-1.3-2.6-2.3s-0.9-2.1-0.9-3.3
			s0.3-2.3,0.9-3.3c0.6-1,1.4-1.7,2.5-2.3s2.2-0.8,3.5-0.8c1.2,0,2.4,0.3,3.4,0.8s1.8,1.3,2.4,2.2c0.6,1,0.9,2.1,0.9,3.5
			C194.5,144.3,194.5,144.6,194.4,145.3z M186.1,141.5c-0.5,0.4-0.7,0.9-0.9,1.6h5.1c-0.1-0.7-0.4-1.2-0.9-1.6
			c-0.5-0.4-1-0.6-1.7-0.6C187.1,140.9,186.6,141.1,186.1,141.5z"/>
		<path class="st0" d="M209.8,139.2c0.9,0.9,1.4,2.3,1.4,4.2v7.2h-4.4V144c0-1.7-0.7-2.6-2.1-2.6c-0.8,0-1.4,0.2-1.8,0.7
			c-0.5,0.5-0.7,1.2-0.7,2.2v6.1h-4.4V138h4.2v1.4c0.5-0.5,1.1-0.9,1.8-1.2s1.4-0.4,2.2-0.4C207.6,137.8,208.9,138.2,209.8,139.2z"
			/>
		<path class="st0" d="M42.4,165.2h-9.1c0.2,0.6,0.5,1.1,1.1,1.5c0.5,0.3,1.2,0.5,2,0.5c0.6,0,1.1-0.1,1.6-0.3
			c0.4-0.2,0.9-0.4,1.3-0.8l2.3,2.4c-1.2,1.4-3,2-5.3,2c-1.5,0-2.7-0.3-3.9-0.8c-1.1-0.6-2-1.3-2.6-2.3s-0.9-2.1-0.9-3.3
			s0.3-2.3,0.9-3.3s1.4-1.7,2.5-2.3s2.2-0.8,3.5-0.8c1.2,0,2.4,0.3,3.4,0.8s1.8,1.3,2.4,2.2c0.6,1,0.9,2.1,0.9,3.5
			C42.5,164.2,42.5,164.5,42.4,165.2z M34.1,161.3c-0.5,0.4-0.7,0.9-0.9,1.6h5.1c-0.1-0.7-0.4-1.2-0.9-1.6c-0.5-0.4-1-0.6-1.7-0.6
			C35.1,160.8,34.6,161,34.1,161.3z"/>
		<path class="st0" d="M45.9,153.2h4.4v17.1h-4.4V153.2z"/>
		<path class="st0" d="M80.9,183.6l-0.1-14.7l-7.1,12h-3.5l-7.1-11.6v14.3h-7.3v-27.7h6.5l9.7,16l9.5-16H88l0.1,27.7H80.9z"/>
		<path class="st0" d="M118.3,162.1v21.5h-7.2v-2.3c-0.8,0.9-1.7,1.5-2.9,2c-1.1,0.4-2.3,0.7-3.5,0.7c-2.8,0-5-0.8-6.6-2.5
			c-1.7-1.6-2.5-4.1-2.5-7.4v-12h7.5v10.8c0,1.6,0.3,2.8,0.9,3.5s1.5,1.1,2.7,1.1s2.2-0.4,2.9-1.2s1.1-2.1,1.1-3.8v-10.3h7.6V162.1z
			"/>
		<path class="st0" d="M146,164.1c1.6,1.6,2.4,4,2.4,7.2v12.3h-7.5v-11.1c0-2.9-1.2-4.4-3.5-4.4c-1.3,0-2.3,0.4-3.1,1.3
			c-0.8,0.8-1.2,2.1-1.2,3.8v10.4h-7.5v-21.5h7.2v2.3c0.8-0.9,1.8-1.5,3-2s2.4-0.7,3.8-0.7C142.2,161.7,144.3,162.5,146,164.1z"/>
		<path class="st0" d="M178.6,154.2v29.4h-7.2v-2.1c-1.4,1.7-3.5,2.5-6.3,2.5c-2,0-3.7-0.5-5.3-1.4s-2.9-2.2-3.8-3.9
			c-0.9-1.7-1.4-3.6-1.4-5.9c0-2.2,0.5-4.2,1.4-5.8c0.9-1.7,2.2-3,3.8-3.9s3.4-1.3,5.3-1.3c2.6,0,4.5,0.7,5.9,2.2v-9.8H178.6z
			 M170,176.6c0.8-0.9,1.3-2.2,1.3-3.8s-0.4-2.8-1.2-3.7s-1.9-1.3-3.2-1.3s-2.4,0.4-3.3,1.3c-0.8,0.9-1.3,2.1-1.3,3.7
			c0,1.6,0.4,2.9,1.3,3.8c0.8,0.9,1.9,1.4,3.3,1.4C168,177.9,169.1,177.5,170,176.6z"/>
		<path class="st0" d="M190.4,182.5c-1.8-1-3.3-2.3-4.3-4s-1.6-3.6-1.6-5.7c0-2.1,0.5-4,1.6-5.7c1-1.7,2.5-3,4.3-3.9
			s3.9-1.4,6.2-1.4s4.4,0.5,6.3,1.4c1.8,0.9,3.3,2.2,4.3,3.9s1.5,3.6,1.5,5.7c0,2.1-0.5,4.1-1.5,5.7c-1,1.7-2.5,3-4.3,4
			s-3.9,1.4-6.3,1.4C194.3,183.9,192.3,183.5,190.4,182.5z M199.9,176.6c0.8-0.9,1.3-2.2,1.3-3.8s-0.4-2.8-1.3-3.7
			c-0.8-0.9-1.9-1.3-3.3-1.3s-2.4,0.4-3.2,1.3c-0.8,0.9-1.3,2.1-1.3,3.7c0,1.6,0.4,2.9,1.3,3.8c0.8,0.9,1.9,1.4,3.2,1.4
			S199,177.5,199.9,176.6z"/>
	</g>
	<path class="st0" d="M174.2,41.3c-3.6,0-7.1,0.5-10.4,1.4c-8.7-18.2-27.3-30.8-48.8-30.8S74.9,24.5,66.2,42.7
		c-3.3-0.9-6.8-1.4-10.4-1.4c-21.7,0-39.4,17.6-39.4,39.4c0,0.6,0,1.2,0,1.8c1.6,33.1,43.6,33,90.2-13c2.1-2.3,4.3-4.7,6.5-7.1l0,0
		l0,0l0,0l-7.8-6.1L85.5,42.7c-0.3-0.2-0.4-0.7-0.1-0.9l2.2-2.2c0.5-0.5,1.1-0.6,1.8-0.5c0,0,27.8,7.5,35.9,10.8
		c10.3-9.6,22.8-17.6,24.4-16c1.7,1.7-6.5,14-16.1,24.2c3.3,7.8,11,36.2,11,36.2c0.2,0.7,0,1.4-0.5,1.8l-2.2,2.2
		c-0.3,0.3-0.7,0.2-0.9-0.1l-13.5-19.9l-6.2-8c-0.1,0.1-0.2,0.1-0.2,0.2l0,0C88.6,103.1,117,120,142.3,120h31.9
		c21.7,0,39.4-17.6,39.4-39.4S195.9,41.3,174.2,41.3z"/>
	<g>
		<path class="st0" d="M21.1,199.1v4.6h-1v-10.1h4c2.2,0,3.4,0.8,3.4,2.6c0,1.3-0.5,1.9-1.6,2.5c1.2,0.4,1.3,1.7,1.3,2.7
			c0,1.5,0.2,1.9,0.4,2.1v0.1h-1.1c-0.4-0.7-0.3-2.6-0.4-3.3c-0.2-1.1-1.1-1.2-2-1.2L21.1,199.1L21.1,199.1z M24,198.3
			c1.4,0,2.5-0.6,2.5-2c0-1.5-1.2-1.9-2.5-1.9h-3v3.9H24z"/>
		<path class="st0" d="M29.5,203.7v-10.1h6.7v0.8h-5.8v3.6h5.2v0.8h-5.2v4h5.9v0.8L29.5,203.7L29.5,203.7z"/>
		<path class="st0" d="M38,203.7v-10.1h1.5l3.3,8.9l0,0l3.2-8.9h1.4v10.1h-1v-9l0,0l-3.3,9h-0.9l-3.3-9l0,0v9H38z"/>
		<path class="st0" d="M53.9,193.3c3.2,0,4.7,2.4,4.7,5.3c0,2.9-1.6,5.3-4.7,5.3c-3.1,0-4.7-2.4-4.7-5.3
			C49.3,195.7,50.9,193.3,53.9,193.3z M57.7,198.7c0-2.8-1.4-4.5-3.8-4.5c-2.6,0-3.7,2.2-3.7,4.5c0,2.4,1.1,4.5,3.8,4.5
			C56.6,203.1,57.7,201,57.7,198.7z"/>
		<path class="st0" d="M59.7,193.6H67v0.8h-3.2v9.3h-1v-9.3h-3.2v-0.8H59.7z"/>
		<path class="st0" d="M68.3,203.7v-10.1H75v0.8h-5.8v3.6h5.2v0.8h-5.2v4h5.9v0.8L68.3,203.7L68.3,203.7z"/>
		<path class="st0" d="M88.7,202.3L88.7,202.3l2.2-8.7h1l-2.6,10.1h-1.1l-2.3-8.9l0,0l-2.3,8.9h-1.1l-2.6-10.1h1l2.2,8.7l0,0
			l2.3-8.7h1.1L88.7,202.3z"/>
		<path class="st0" d="M97.5,193.3c3.2,0,4.7,2.4,4.7,5.3c0,2.9-1.6,5.3-4.7,5.3s-4.7-2.4-4.7-5.3S94.5,193.3,97.5,193.3z
			 M101.3,198.7c0-2.8-1.4-4.5-3.8-4.5c-2.6,0-3.7,2.2-3.7,4.5c0,2.4,1.1,4.5,3.8,4.5C100.2,203.1,101.3,201,101.3,198.7z"/>
		<path class="st0" d="M105.1,199.1v4.6h-1v-10.1h4c2.2,0,3.4,0.8,3.4,2.6c0,1.3-0.5,1.9-1.6,2.5c1.2,0.4,1.3,1.7,1.3,2.7
			c0,1.5,0.2,1.9,0.4,2.1v0.1h-1.1c-0.4-0.7-0.3-2.6-0.4-3.3c-0.2-1.1-1.1-1.2-2-1.2L105.1,199.1L105.1,199.1z M108,198.3
			c1.4,0,2.5-0.6,2.5-2c0-1.5-1.2-1.9-2.5-1.9h-3v3.9H108z"/>
		<path class="st0" d="M113.5,203.7v-10.1h1v5.2l5.2-5.2h1.1l-4,4l4.7,6.1h-1.2l-4.2-5.5l-1.6,1.6v3.9H113.5z"/>
		<path class="st0" d="M123.1,203.7v-10.1h1v10.1H123.1z"/>
		<path class="st0" d="M127.7,194.9L127.7,194.9v8.8h-1v-10.1h1.1l5.8,8.8l0,0v-8.8h1v10.1h-1.1L127.7,194.9z"/>
		<path class="st0" d="M141.1,199.3v-0.8h4.3v5.2h-0.8V202c-0.7,1.2-1.8,2-3.8,2c-2.5,0-4.4-1.8-4.4-5.4c0-3,1.5-5.3,4.7-5.3
			c2.1,0,3.8,1,4.2,3.2h-1c-0.3-1.5-1.7-2.4-3.2-2.4c-2.7,0-3.8,2-3.8,4.8c0,2.2,1.3,4.2,3.7,4.2c1.1,0,2.4-0.5,3-1.8
			c0.3-0.6,0.4-1.3,0.4-2.1h-3.3V199.3z"/>
		<path class="st0" d="M157.3,201.1c0.3-0.6,0.4-1.3,0.4-2h0.8c0,0.9-0.2,1.8-0.7,2.6l1.6,1.9h-1.1l-1-1.2c-0.9,1.1-1.8,1.5-3.2,1.5
			c-1.8,0-3.2-1.2-3.2-3c0-1.5,1.1-2.5,2.4-3.1c-0.5-0.6-1.1-1.4-1.1-2.3c0-1.3,1-2,2.3-2c1.2,0,2.1,0.9,2.1,1.9
			c0,1.3-0.9,1.9-2,2.5L157.3,201.1z M153.9,198.4c-1.1,0.5-2,1.5-2,2.6c0,1.3,1,2.2,2.3,2.2c1.1,0,1.9-0.5,2.6-1.3L153.9,198.4z
			 M154.6,194.4c-0.7,0-1.3,0.5-1.3,1.2c0,0.6,0.7,1.5,1,1.9c0.6-0.3,1.2-0.7,1.5-1.3C156.1,195.4,155.6,194.4,154.6,194.4z"/>
		<path class="st0" d="M163.9,193.6h7.3v0.8H168v9.3h-1v-9.3h-3.2L163.9,193.6L163.9,193.6z"/>
		<path class="st0" d="M173.5,199.1v4.6h-1v-10.1h4c2.2,0,3.4,0.8,3.4,2.6c0,1.3-0.5,1.9-1.6,2.5c1.2,0.4,1.3,1.7,1.3,2.7
			c0,1.5,0.2,1.9,0.4,2.1v0.1h-1c-0.4-0.7-0.3-2.6-0.4-3.3c-0.2-1.1-1.1-1.2-2-1.2L173.5,199.1L173.5,199.1z M176.5,198.3
			c1.4,0,2.5-0.6,2.5-2c0-1.5-1.2-1.9-2.5-1.9h-3v3.9H176.5z"/>
		<path class="st0" d="M181,203.7l4-10.1h1.1l3.9,10.1h-1l-1.2-3.2h-4.6l-1.2,3.2H181z M183.5,199.7h4l-2-5.3L183.5,199.7z"/>
		<path class="st0" d="M189.4,193.6h1l3,9l3-9h1l-3.5,10.1h-1.1L189.4,193.6z"/>
		<path class="st0" d="M198.8,203.7v-10.1h6.7v0.8h-5.8v3.6h5.2v0.8h-5.2v4h5.9v0.8L198.8,203.7L198.8,203.7z"/>
		<path class="st0" d="M207.3,203.7v-10.1h1v9.3h5.4v0.8H207.3z"/>
	</g>
</g>
</svg>
