<?xml version="1.0" encoding="utf-8"?>
<svg version="1.1" xmlns="http://www.w3.org/2000/svg" xmlns:xlink="http://www.w3.org/1999/xlink" x="0px" y="0px" viewBox="0 0 200 80" style="enable-background:new 0 0 200 80;" xml:space="preserve" width="120">
<path fill="#fff" d="M29.9,38.5c-1.9,0.7-3.4,1.8-4.4,3.3c-1,1.5-1.6,3.4-1.6,5.5c0,1,0.1,1.7,0.3,2.1c0.2,0.4,0.3,0.6,0.3,0.7
c-1.4,0-2.5-0.3-3.2-0.9s-1.1-1.6-1.1-3c0-1.7,0.7-3.4,2.1-5c1.4-1.6,3.2-2.9,5.4-3.9s4.4-1.5,6.6-1.5c0.4,0,0.9,0,1.6,0.1
l0.4,24.6l8.4-24.5h5.1l0.4,24.5l8.4-24.5h2.8L50.1,65.9h-5.8l-0.5-20.4l-7.6,20.4h-5.8L29.9,38.5z"/>
<path fill="#fff" d="M59.6,64.5c-1.1-1-1.7-2.6-1.7-4.8c0-1.8,0.4-3.8,1.1-6c0.7-2.2,1.9-4.1,3.6-5.7c1.7-1.6,3.7-2.4,6.2-2.4
c3.4,0,5.1,2.1,5.1,6.4v0c0.1,0,0.2,0,0.4,0c0.9,0,1.9-0.2,3-0.7c1.1-0.5,2.2-1,3.1-1.7l0.4,1.1c-0.8,0.8-1.8,1.5-3,2.1
c-1.2,0.6-2.6,1-4.1,1.2c-0.2,2.4-0.8,4.5-1.6,6.4c-0.9,1.8-2,3.2-3.4,4.2c-1.4,1-2.9,1.5-4.5,1.5C62.3,66,60.8,65.5,59.6,64.5z
M67.8,61.3c0.6-0.7,1.2-1.7,1.7-3c0.5-1.3,0.8-2.7,1-4.2c-0.7-0.2-1.1-0.7-1.1-1.7c0-1.1,0.4-1.8,1.2-2.2
c-0.1-0.9-0.2-1.5-0.4-1.8c-0.2-0.3-0.6-0.5-1.1-0.5c-0.9,0-1.7,0.6-2.6,1.9c-0.8,1.3-1.5,2.8-2,4.6c-0.5,1.8-0.8,3.4-0.8,4.7
c0,1.3,0.1,2.1,0.4,2.6c0.3,0.4,0.8,0.7,1.6,0.7C66.5,62.4,67.2,62.1,67.8,61.3z"/>
<path fill="#fff" d="M78.7,45.9h5.8L84,48.3c0.9-0.8,1.7-1.4,2.5-1.8c0.7-0.4,1.5-0.6,2.4-0.6s1.5,0.3,2,0.9
c0.5,0.6,0.7,1.3,0.7,2.1c0,0.8-0.3,1.5-0.8,2c-0.5,0.6-1.2,0.9-2.1,0.9c-0.6,0-1-0.1-1.2-0.4s-0.4-0.7-0.5-1.2
c-0.1-0.3-0.2-0.6-0.2-0.8s-0.2-0.2-0.4-0.2c-0.6,0-1,0.1-1.4,0.3s-0.9,0.6-1.5,1.2l-3.2,15.2h-5.8L78.7,45.9z"/>
<path fill="#fff" d="M102.3,64.9c-0.9-0.8-1.3-1.9-1.3-3.4c0-0.6,0.1-1.3,0.2-2.1l0.3-1.6c0.1-0.5,0.2-0.9,0.2-1.5
c0-1.3-0.5-1.9-1.4-1.9c-0.4,0-0.9,0.1-1.3,0.4c-0.5,0.2-1,0.6-1.6,1.1l-2.1,9.9h-5.8l5.8-27.2l5.9-0.8l-3,14.1l7.7-6.1h4l-8,5.6
c0.4-0.1,0.8-0.2,1.3-0.2c1.4,0,2.5,0.4,3.3,1.3c0.7,0.9,1.1,2,1.1,3.4c0,0.6-0.1,1.1-0.2,1.5l-0.4,2c-0.1,0.5-0.2,0.9-0.2,1.3
c0,1,0.5,1.5,1.6,1.5c0.8,0,1.4-0.3,1.9-0.9c0.5-0.6,1-1.5,1.4-2.7h1.7c-1.7,4.9-4.1,7.4-7.4,7.4
C104.4,66.1,103.2,65.7,102.3,64.9z"/>
<path fill="#fff" d="M113.1,65.4c-0.9-0.5-1.5-1.1-2-1.9c-0.4-0.8-0.6-1.6-0.6-2.5c0-0.9,0.2-1.6,0.6-2.3
c0.4-0.7,0.9-1.1,1.5-1.4c1-1.9,1.9-3.8,2.7-5.7c0.8-1.9,1.5-4,2.2-6.2l5.9-0.8c0.1,3.4,0.4,7.1,0.7,11.1
c0.1,1.6,0.2,2.8,0.2,3.5c0,0.6-0.1,1.1-0.2,1.5c1.3-0.7,2.2-1.4,2.9-2h1.7c-1.7,2-3.7,3.6-6.1,5c-0.8,0.8-1.7,1.4-2.9,1.8
c-1.1,0.4-2.3,0.6-3.4,0.6C115.1,66.1,114,65.9,113.1,65.4z M117.5,62.1c0.7-0.6,1-1.5,1-2.8c0-0.8-0.1-1.9-0.2-3.4
c-0.3-3-0.4-5.1-0.5-6.1c-0.6,2.1-1.7,4.6-3.2,7.6c0.6,0.3,0.9,0.8,0.9,1.4c0,0.5-0.2,1-0.5,1.4c-0.3,0.4-0.8,0.6-1.3,0.6
c-0.6,0-0.9-0.2-1.1-0.5c0,1,0.2,1.7,0.6,2.1c0.4,0.5,1,0.7,1.9,0.7C116,62.9,116.9,62.7,117.5,62.1z"/>
<path fill="#fff" d="M137.9,64.8c-0.8-0.9-1.1-1.9-1.1-3.2c0-0.6,0.1-1.2,0.2-1.9c0.1-0.7,0.3-1.4,0.4-2.1
c0.1-0.7,0.2-1.1,0.3-1.3c0.2-0.9,0.4-1.9,0.6-2.8c0.2-0.9,0.3-1.6,0.3-2.2c0-1.4-0.5-2-1.4-2c-0.7,0-1.3,0.3-1.8,1
c-0.5,0.7-1,1.6-1.3,2.7l-2.7,12.8h-5.8l5.8-27.2l5.9-0.8l-2.2,10.1c1.3-1.5,2.9-2.2,4.7-2.2c1.4,0,2.4,0.4,3.2,1.1
c0.8,0.7,1.2,1.9,1.2,3.4c0,0.8-0.1,1.6-0.3,2.6c-0.2,0.9-0.5,2.1-0.8,3.5c-0.2,0.8-0.4,1.6-0.6,2.4c-0.2,0.8-0.3,1.4-0.3,1.9
c0,0.5,0.1,0.9,0.4,1.2c0.2,0.3,0.7,0.4,1.2,0.4c0.8,0,1.4-0.3,1.9-0.9c0.5-0.6,1-1.5,1.4-2.7h1.7c-1,2.9-2.1,4.9-3.4,5.9
c-1.3,1-2.6,1.5-4,1.5C139.9,66.1,138.7,65.7,137.9,64.8z"/>
<path fill="#fff" d="M148.4,64.5c-1.1-1-1.7-2.6-1.7-4.8c0-1.8,0.4-3.8,1.1-6c0.7-2.2,1.9-4.1,3.6-5.7c1.7-1.6,3.7-2.4,6.2-2.4
c3.4,0,5.1,2.1,5.1,6.4v0c0.1,0,0.2,0,0.4,0c0.9,0,1.9-0.2,3-0.7c1.1-0.5,2.2-1,3.1-1.7l0.4,1.1c-0.8,0.8-1.8,1.5-3,2.1
c-1.2,0.6-2.6,1-4.1,1.2c-0.2,2.4-0.8,4.5-1.6,6.4c-0.9,1.8-2,3.2-3.4,4.2c-1.4,1-2.9,1.5-4.5,1.5
C151.1,66,149.6,65.5,148.4,64.5z M156.6,61.3c0.6-0.7,1.2-1.7,1.7-3c0.5-1.3,0.8-2.7,1-4.2c-0.7-0.2-1.1-0.7-1.1-1.7
c0-1.1,0.4-1.8,1.2-2.2c-0.1-0.9-0.2-1.5-0.4-1.8c-0.2-0.3-0.6-0.5-1.1-0.5c-0.9,0-1.7,0.6-2.6,1.9c-0.8,1.3-1.5,2.8-2,4.6
c-0.5,1.8-0.8,3.4-0.8,4.7c0,1.3,0.1,2.1,0.4,2.6c0.3,0.4,0.8,0.7,1.6,0.7C155.3,62.4,156,62.1,156.6,61.3z"/>
<path fill="#fff" d="M167.9,44.4h5.8l-0.6,3c1.3-1.1,2.9-1.7,4.7-1.7c1.5,0,2.7,0.5,3.6,1.5c0.9,1,1.3,2.6,1.3,4.8
c0,2.1-0.3,4.2-0.9,6.4c-0.6,2.1-1.7,4-3.1,5.5c-1.5,1.5-3.4,2.3-5.8,2.3c-1.7,0-2.8-0.5-3.4-1.4l-2.1,9.8l-6,1.4L167.9,44.4z
M174.6,60.8c0.8-1.2,1.5-2.6,1.8-4.3c0.4-1.7,0.6-3.2,0.6-4.7c0-2.2-0.7-3.3-2-3.3c-0.5,0-1,0.2-1.5,0.5s-0.9,0.8-1.3,1.4
l-2.4,11.2c0.2,0.6,0.7,0.9,1.5,0.9C172.7,62.6,173.8,62,174.6,60.8z"/>
<path fill="#fff" d="M99.9,15.8c0,0,2.6,0.7,3.8-1.3c1.2-2,3.1-4.3,5.4-4.8c0,0-2.1-3-4.3-1.1C102.5,10.6,103.2,14.1,99.9,15.8
z"/>
<path fill="#fff" d="M100,15.8c0,0-2.6,0.7-3.8-1.3c-1.2-2-3.1-4.3-5.4-4.8c0,0,2.1-3,4.3-1.1C97.4,10.6,96.7,14.1,100,15.8z"
/>
<path fill="#fff" d="M99.9,4.4c0,1.6,2.5,4.1,2,7.8c-0.4,3-2,3.6-2,3.6s-1.6-0.7-2-3.6C97.4,8.5,100,6,99.9,4.4z"/>
<path fill="#fff" d="M90.5,14c-0.1-0.2-0.1-0.5,0.2-0.6c0.2-0.1,0.5-0.1,0.7,0c0.4,0.3,0.4,0.9,0.2,1.2
c-0.3,0.4-0.8,0.5-1.2,0.4c-0.2-0.1-0.4-0.2-0.6-0.3c-0.2-0.2-0.3-0.4-0.3-0.6c-0.1-0.4-0.1-0.9,0.1-1.3
c0.2-0.4,0.5-0.7,0.9-0.9c0.4-0.2,0.8-0.3,1.2-0.4c0.2,0,0.4,0,0.6,0c0.2,0,0.4,0,0.6,0.1c0.8,0.2,1.5,0.7,2,1.3
c0.1,0.1,0.1,0.2,0.2,0.2l0.2,0.2l0.3,0.5l0.3,0.5l0.3,0.4c0.4,0.6,1,1.1,1.6,1.4c0.3,0.1,0.7,0.2,1,0.2c0.4,0,0.7-0.1,1-0.3
l0,0c0,0,0.1,0,0.1,0c0,0,0,0.1,0,0.1c-0.3,0.3-0.7,0.4-1.1,0.5c-0.4,0.1-0.8,0-1.2-0.2c-0.7-0.3-1.3-0.9-1.8-1.5l-0.4-0.5
l-0.3-0.5c-0.1-0.2-0.2-0.3-0.3-0.5l-0.2-0.2c-0.1-0.1-0.1-0.1-0.2-0.2c-0.5-0.5-1-1-1.7-1.2C92.4,12,92.2,12,92,12
c-0.2,0-0.3,0-0.5,0c-0.3,0-0.7,0.1-1,0.3c-0.3,0.2-0.5,0.4-0.7,0.7c-0.1,0.3-0.2,0.6-0.1,0.9c0.1,0.2,0.1,0.3,0.2,0.4
c0.1,0.1,0.2,0.2,0.4,0.2c0.1,0,0.3,0.1,0.5,0c0.1,0,0.2,0,0.2-0.1c0.1,0,0.1-0.1,0.2-0.1c0.1-0.1,0.1-0.3,0.1-0.4
c0-0.2-0.1-0.3-0.2-0.4c-0.1-0.1-0.3-0.1-0.4,0c-0.1,0.1-0.2,0.2-0.1,0.3c0,0,0,0.1,0,0.1C90.6,14.1,90.5,14.1,90.5,14L90.5,14z
"/>
<path fill="#fff" d="M100.5,16.1c0.3,0.2,0.6,0.3,1,0.3c0.4,0,0.7-0.1,1-0.2c0.6-0.3,1.2-0.8,1.6-1.4c0.2-0.3,0.4-0.6,0.6-0.9
l0.3-0.5c0.1-0.2,0.2-0.3,0.4-0.5c0.5-0.6,1.2-1.1,2-1.3c0.8-0.2,1.7-0.1,2.4,0.3c0.4,0.2,0.7,0.5,0.9,0.9
c0.2,0.4,0.2,0.9,0,1.3c0,0.1-0.1,0.2-0.1,0.3c-0.1,0.1-0.1,0.2-0.2,0.3c-0.2,0.2-0.4,0.3-0.6,0.3c-0.2,0.1-0.5,0-0.7,0
c-0.2-0.1-0.4-0.2-0.5-0.4c-0.3-0.4-0.2-1,0.2-1.2c0.2-0.1,0.5-0.1,0.6,0.1c0.1,0.1,0.2,0.2,0.2,0.3c0,0.1,0,0.1,0,0.2
c0,0.1-0.1,0.1-0.1,0.1c0,0-0.1,0-0.1,0c0,0,0-0.1,0-0.1c0.1-0.1,0-0.3-0.1-0.3c-0.1-0.1-0.3-0.1-0.4,0c-0.1,0-0.1,0.1-0.1,0.2
c0,0.1-0.1,0.1-0.1,0.2c0,0.2,0,0.3,0.1,0.4c0.1,0.1,0.2,0.2,0.4,0.2c0.2,0,0.3,0,0.5,0c0.1,0,0.3-0.1,0.4-0.2
c0.1-0.1,0.1-0.1,0.1-0.2c0-0.1,0.1-0.1,0.1-0.2c0.1-0.3,0.1-0.6-0.1-0.9c-0.1-0.3-0.4-0.5-0.7-0.7c-0.6-0.3-1.3-0.4-2-0.3
c-0.7,0.2-1.3,0.6-1.7,1.2c-0.2,0.3-0.4,0.6-0.6,0.9c-0.2,0.3-0.4,0.6-0.7,0.9c-0.5,0.6-1.1,1.2-1.8,1.5
c-0.4,0.2-0.8,0.2-1.2,0.2c-0.4,0-0.8-0.2-1.1-0.5c0,0,0-0.1,0-0.1C100.4,16.1,100.4,16.1,100.5,16.1L100.5,16.1z"/>
<path fill="#fff" d="M90.9,14c0,0.1-0.1,0.2-0.2,0.2c-0.1,0-0.2-0.1-0.2-0.2c0-0.1,0.1-0.2,0.2-0.2C90.8,13.8,90.9,13.9,90.9,14z
"/>
<path fill="#fff" d="M109.6,13.9c0,0.1-0.1,0.2-0.2,0.2c-0.1,0-0.2-0.1-0.2-0.2c0-0.1,0.1-0.2,0.2-0.2
C109.5,13.7,109.6,13.8,109.6,13.9z"/>
<path fill="#fff" d="M40.1,23.1c-0.3,0.5-0.8,1-1.2,1.5c-0.5,0.5-1,0.9-1.5,1.3c0.4,0.4,0.7,0.8,1,1.3c0.3,0.5,0.5,1,0.7,1.5
l-0.9,0.7c-0.3-0.7-0.6-1.3-1.1-1.9c-0.5-0.6-1-1.2-1.6-1.6c0.8-0.5,1.5-1,2.2-1.6c0.7-0.6,1.3-1.3,1.8-1.9L40.1,23.1z
M44.1,23.1c-0.3,0.5-0.8,1-1.2,1.5c-0.5,0.5-1,0.9-1.5,1.3c0.4,0.4,0.7,0.8,1,1.3c0.3,0.5,0.5,1,0.7,1.5l-0.9,0.7
c-0.3-0.7-0.6-1.3-1.1-1.9c-0.5-0.6-1-1.2-1.6-1.6c0.8-0.5,1.5-1,2.2-1.6c0.7-0.6,1.3-1.3,1.8-1.9L44.1,23.1z"/>
<path fill="#fff" d="M62.9,31.9h-0.7l-2.5-7.2c-0.2-0.5-0.4-1.1-0.6-1.6c-0.2-0.6-0.4-1.2-0.6-2h0c-0.2,0.7-0.4,1.4-0.6,2
c-0.2,0.6-0.4,1.1-0.6,1.6l-2.5,7.2h-0.7l-4.7-13.6h2l2.2,6.2c0.2,0.4,0.3,0.9,0.5,1.5c0.2,0.5,0.3,1.1,0.5,1.6h0
c0.2-0.5,0.3-1.1,0.5-1.6c0.2-0.5,0.3-1,0.5-1.5l2.1-6.2h1.7l2.2,6.2c0.2,0.4,0.3,0.9,0.5,1.4s0.3,1.1,0.5,1.6h0
c0.1-0.5,0.3-1.1,0.5-1.6c0.2-0.5,0.3-1,0.5-1.4l2.2-6.2h1.9L62.9,31.9z"/>
<path fill="#fff" d="M76.7,25.6c0,0.3,0,0.6-0.1,0.8l-1.1,1.1h-5.7c0,0.3,0.1,0.6,0.2,0.9c0.1,0.3,0.4,0.6,0.6,0.9s0.6,0.5,1,0.7
s0.9,0.3,1.5,0.3c0.6,0,1.2-0.1,1.6-0.2s0.9-0.4,1.4-0.7l-0.5,2c-0.3,0.2-0.7,0.3-1.2,0.4s-1,0.2-1.6,0.2c-0.7,0-1.3-0.1-1.9-0.4
s-1.2-0.6-1.6-1c-0.5-0.4-0.8-1-1.1-1.6c-0.3-0.6-0.4-1.3-0.4-2c0-0.8,0.1-1.5,0.4-2.2s0.7-1.1,1.1-1.6s1-0.7,1.5-1
c0.6-0.2,1.1-0.3,1.7-0.3c0.7,0,1.2,0.1,1.8,0.3c0.5,0.2,0.9,0.5,1.3,0.8c0.3,0.3,0.6,0.7,0.8,1.2S76.7,25.1,76.7,25.6z
M74.8,25.6c0-0.2,0-0.5-0.1-0.7c-0.1-0.2-0.2-0.5-0.4-0.7c-0.2-0.2-0.4-0.4-0.7-0.5c-0.3-0.1-0.5-0.2-0.9-0.2
c-0.3,0-0.6,0.1-0.9,0.2c-0.3,0.1-0.6,0.3-0.8,0.5c-0.3,0.2-0.5,0.4-0.6,0.7s-0.3,0.6-0.4,0.9h4.8C74.8,25.8,74.8,25.7,74.8,25.6
z"/>
<path fill="#fff" d="M87.5,26.9c0,0.8-0.1,1.5-0.4,2.1c-0.3,0.6-0.6,1.2-1.1,1.6s-1,0.8-1.7,1c-0.7,0.2-1.4,0.3-2.2,0.3
c-0.7,0-1.4-0.1-1.9-0.3c-0.6-0.2-1-0.4-1.4-0.6V16.7h1.9v5.5c0.2-0.1,0.4-0.1,0.6-0.2s0.6-0.1,1-0.1c0.7,0,1.3,0.1,2,0.3
s1.2,0.6,1.7,1c0.5,0.4,0.9,0.9,1.1,1.6C87.4,25.4,87.5,26.1,87.5,26.9z M85.6,26.9c0-0.5-0.1-1-0.3-1.4s-0.4-0.7-0.7-1
c-0.3-0.3-0.7-0.5-1-0.6c-0.4-0.1-0.8-0.2-1.2-0.2c-0.4,0-0.7,0-1,0.1s-0.5,0.2-0.7,0.3v6c0.2,0.1,0.4,0.1,0.6,0.2
s0.5,0.1,0.9,0.1c1.1,0,2-0.3,2.6-0.9C85.3,28.7,85.6,27.9,85.6,26.9z"/>
<path fill="#fff" d="M94.4,31.7V18.3h2.1V30h5.9v1.7H94.4z"/>
<path fill="#fff" d="M110.3,31.9c-0.3-0.1-0.6-0.2-0.8-0.4c-0.2-0.2-0.4-0.5-0.5-0.8c-0.3,0.4-0.7,0.8-1.2,0.9
c-0.5,0.2-1,0.3-1.5,0.3c-0.5,0-0.9-0.1-1.3-0.2c-0.4-0.2-0.7-0.4-1-0.6c-0.3-0.3-0.5-0.6-0.6-0.9c-0.1-0.4-0.2-0.7-0.2-1.1
c0-0.5,0.1-0.9,0.3-1.2c0.2-0.4,0.4-0.7,0.7-0.9c0.3-0.3,0.6-0.5,1-0.6c0.4-0.1,0.8-0.2,1.2-0.3l2.2-0.2v-0.6
c0-0.4-0.1-0.8-0.4-1.1c-0.3-0.3-0.8-0.5-1.4-0.5c-0.5,0-0.9,0.1-1.4,0.2s-0.9,0.3-1.2,0.5l-0.4-1.6c0.4-0.3,0.9-0.5,1.4-0.6
c0.5-0.1,1.1-0.2,1.7-0.2c0.5,0,1,0.1,1.5,0.2c0.4,0.1,0.8,0.4,1.2,0.7s0.6,0.7,0.8,1.1c0.2,0.4,0.3,0.9,0.3,1.5v3.8
c0,0.4,0.1,0.8,0.3,1c0.2,0.2,0.5,0.4,0.8,0.5L110.3,31.9z M108.6,27.3l-1.9,0.2c-0.6,0.1-1,0.2-1.3,0.5s-0.4,0.6-0.4,1
c0,0.3,0.1,0.6,0.4,0.9c0.3,0.3,0.6,0.4,0.9,0.4c0.3,0,0.5-0.1,0.8-0.2c0.3-0.1,0.5-0.3,0.7-0.5s0.4-0.4,0.5-0.7
c0.1-0.3,0.2-0.5,0.2-0.8V27.3z"/>
<path fill="#fff" d="M117.3,30.8c-0.4,0.9-0.7,1.6-1.1,2.3c-0.4,0.6-0.8,1.2-1.2,1.7s-0.8,0.8-1.3,1.2c-0.4,0.3-0.9,0.6-1.3,0.8
l-1.2-1.2c0.4-0.2,0.8-0.4,1.2-0.6c0.4-0.2,0.7-0.5,1-0.9c0.3-0.4,0.6-0.8,0.9-1.3c0.3-0.5,0.6-1.1,0.9-1.8l-3.5-8.7h2l1.8,4.3
c0.1,0.3,0.3,0.6,0.4,1c0.1,0.4,0.3,0.7,0.4,1.1h0c0.1-0.4,0.3-0.7,0.4-1.1c0.1-0.3,0.3-0.7,0.4-1l1.8-4.4h1.8L117.3,30.8z"/>
<path fill="#fff" d="M131.8,26.9c0,0.7-0.1,1.4-0.4,2c-0.3,0.6-0.6,1.1-1.1,1.6c-0.5,0.4-1,0.8-1.6,1c-0.6,0.2-1.3,0.4-2,0.4
s-1.4-0.1-2-0.4c-0.6-0.2-1.2-0.6-1.6-1s-0.8-1-1.1-1.6c-0.3-0.6-0.4-1.3-0.4-2c0-0.7,0.1-1.4,0.4-2c0.3-0.6,0.6-1.1,1.1-1.6
s1-0.8,1.6-1c0.6-0.2,1.3-0.4,2-0.4s1.4,0.1,2,0.4c0.6,0.2,1.1,0.6,1.6,1c0.5,0.4,0.8,1,1.1,1.6S131.8,26.2,131.8,26.9z
M129.9,26.9c0-0.5-0.1-1-0.3-1.4c-0.2-0.4-0.4-0.8-0.7-1s-0.6-0.5-1-0.7c-0.4-0.2-0.8-0.2-1.2-0.2s-0.8,0.1-1.2,0.2
s-0.7,0.4-1,0.7c-0.3,0.3-0.5,0.6-0.7,1c-0.2,0.4-0.3,0.9-0.3,1.4c0,0.5,0.1,0.9,0.3,1.4c0.2,0.4,0.4,0.8,0.7,1
c0.3,0.3,0.6,0.5,1,0.7s0.8,0.2,1.2,0.2s0.8-0.1,1.2-0.2c0.4-0.2,0.7-0.4,1-0.7c0.3-0.3,0.5-0.6,0.7-1
C129.8,27.9,129.9,27.4,129.9,26.9z"/>
<path fill="#fff" d="M140.3,31.7l-0.1-0.9c-0.4,0.4-0.8,0.7-1.2,0.9c-0.4,0.2-1,0.3-1.8,0.3c-0.5,0-1-0.1-1.4-0.2
c-0.4-0.2-0.8-0.4-1.1-0.7s-0.6-0.7-0.8-1.1c-0.2-0.4-0.3-0.9-0.3-1.4v-6.3h1.9v6.1c0,0.3,0,0.5,0.1,0.7c0.1,0.2,0.2,0.5,0.4,0.6
c0.2,0.2,0.4,0.3,0.7,0.5c0.3,0.1,0.6,0.2,1,0.2c0.4,0,0.7-0.1,1-0.2c0.3-0.1,0.5-0.3,0.7-0.5c0.2-0.2,0.3-0.4,0.4-0.6
c0.1-0.2,0.1-0.5,0.1-0.7v-6.1h1.9v9.5H140.3z"/>
<path fill="#fff" d="M150.1,23.7h-3V29c0,0.4,0.1,0.7,0.4,0.9c0.3,0.2,0.6,0.3,1,0.3c0.4,0,0.8,0,1-0.1l-0.4,1.7
c-0.2,0.1-0.5,0.1-0.9,0.1c-0.4,0-0.8-0.1-1.2-0.2s-0.7-0.3-1-0.6c-0.3-0.2-0.5-0.5-0.7-0.9c-0.2-0.4-0.2-0.8-0.2-1.2v-5.2h-1.9
v-1.5h1.9v-1.9l1.9-1v2.9h3.4L150.1,23.7z"/>
<path fill="#fff" d="M160.2,25.9c-0.8,0.4-1.5,1-2.2,1.6c-0.7,0.6-1.3,1.3-1.8,1.9l-0.6-0.8c0.3-0.5,0.7-1.1,1.2-1.5
s1-0.9,1.5-1.3c-0.4-0.4-0.7-0.8-1.1-1.3c-0.3-0.5-0.5-1-0.7-1.5l0.9-0.7c0.2,0.7,0.6,1.3,1.1,1.9
C159,24.9,159.6,25.4,160.2,25.9z M164.2,25.9c-0.8,0.4-1.5,1-2.2,1.6c-0.7,0.6-1.3,1.3-1.8,1.9l-0.6-0.8
c0.3-0.5,0.8-1.1,1.2-1.5c0.5-0.5,1-0.9,1.5-1.3c-0.4-0.4-0.7-0.8-1-1.3s-0.5-1-0.7-1.5l0.9-0.7c0.3,0.7,0.6,1.3,1.1,1.9
S163.6,25.4,164.2,25.9z"/>
<path fill="#fff" d="M191.8,72.1l-0.3-0.3l0.5-0.5l-0.5-0.5l0.3-0.3l0.8,0.8L191.8,72.1z"/>
<path fill="#fff" d="M189,72.1l-0.3-0.3l0.5-0.5l-0.5-0.5l0.3-0.3l0.8,0.8L189,72.1z"/>
<path fill="#fff" d="M186.2,72.1l-0.3-0.3l0.5-0.5l-0.5-0.5l0.3-0.3l0.8,0.8L186.2,72.1z"/>
<path fill="#fff" d="M183.3,72.1l-0.3-0.3l0.5-0.5l-0.5-0.5l0.3-0.3l0.8,0.8L183.3,72.1z"/>
<path fill="#fff" d="M180.5,72.1l-0.3-0.3l0.5-0.5l-0.5-0.5l0.3-0.3l0.8,0.8L180.5,72.1z"/>
<path fill="#fff" d="M177.7,72.1l-0.3-0.3l0.5-0.5l-0.5-0.5l0.3-0.3l0.8,0.8L177.7,72.1z"/>
<path fill="#fff" d="M174.8,72.1l-0.3-0.3l0.5-0.5l-0.5-0.5l0.3-0.3l0.8,0.8L174.8,72.1z"/>
<path fill="#fff" d="M172,72.1l-0.3-0.3l0.5-0.5l-0.5-0.5l0.3-0.3l0.8,0.8L172,72.1z"/>
<path fill="#fff" d="M169.2,72.1l-0.3-0.3l0.5-0.5l-0.5-0.5l0.3-0.3l0.8,0.8L169.2,72.1z"/>
<path fill="#fff" d="M166.3,72.1l-0.3-0.3l0.5-0.5l-0.5-0.5l0.3-0.3l0.8,0.8L166.3,72.1z"/>
<path fill="#fff" d="M163.5,72.1l-0.3-0.3l0.5-0.5l-0.5-0.5l0.3-0.3l0.8,0.8L163.5,72.1z"/>
<path fill="#fff" d="M160.7,72.1l-0.3-0.3l0.5-0.5l-0.5-0.5l0.3-0.3l0.8,0.8L160.7,72.1z"/>
<path fill="#fff" d="M157.8,72.1l-0.3-0.3l0.5-0.5l-0.5-0.5l0.3-0.3l0.8,0.8L157.8,72.1z"/>
<path fill="#fff" d="M155,72.1l-0.3-0.3l0.5-0.5l-0.5-0.5l0.3-0.3l0.8,0.8L155,72.1z"/>
<path fill="#fff" d="M152.2,72.1l-0.3-0.3l0.5-0.5l-0.5-0.5l0.3-0.3l0.8,0.8L152.2,72.1z"/>
<path fill="#fff" d="M149.3,72.1l-0.3-0.3l0.5-0.5l-0.5-0.5l0.3-0.3l0.8,0.8L149.3,72.1z"/>
<path fill="#fff" d="M146.5,72.1l-0.3-0.3l0.5-0.5l-0.5-0.5l0.3-0.3l0.8,0.8L146.5,72.1z"/>
<path fill="#fff" d="M143.7,72.1l-0.3-0.3l0.5-0.5l-0.5-0.5l0.3-0.3l0.8,0.8L143.7,72.1z"/>
<path fill="#fff" d="M140.8,72.1l-0.3-0.3l0.5-0.5l-0.5-0.5l0.3-0.3l0.8,0.8L140.8,72.1z"/>
<path fill="#fff" d="M138,72.1l-0.3-0.3l0.5-0.5l-0.5-0.5l0.3-0.3l0.8,0.8L138,72.1z"/>
<path fill="#fff" d="M135.1,72.1l-0.3-0.3l0.5-0.5l-0.5-0.5l0.3-0.3l0.8,0.8L135.1,72.1z"/>
<path fill="#fff" d="M132.3,72.1l-0.3-0.3l0.5-0.5l-0.5-0.5l0.3-0.3l0.8,0.8L132.3,72.1z"/>
<path fill="#fff" d="M129.5,72.1l-0.3-0.3l0.5-0.5l-0.5-0.5l0.3-0.3l0.8,0.8L129.5,72.1z"/>
<path fill="#fff" d="M126.6,72.1l-0.3-0.3l0.5-0.5l-0.5-0.5l0.3-0.3l0.8,0.8L126.6,72.1z"/>
<path fill="#fff" d="M123.8,72.1l-0.3-0.3l0.5-0.5l-0.5-0.5l0.3-0.3l0.8,0.8L123.8,72.1z"/>
<path fill="#fff" d="M121,72.1l-0.3-0.3l0.5-0.5l-0.5-0.5l0.3-0.3l0.8,0.8L121,72.1z"/>
<path fill="#fff" d="M118.1,72.1l-0.3-0.3l0.5-0.5l-0.5-0.5l0.3-0.3l0.8,0.8L118.1,72.1z"/>
<path fill="#fff" d="M115.3,72.1l-0.3-0.3l0.5-0.5l-0.5-0.5l0.3-0.3l0.8,0.8L115.3,72.1z"/>
<path fill="#fff" d="M112.5,72.1l-0.3-0.3l0.5-0.5l-0.5-0.5l0.3-0.3l0.8,0.8L112.5,72.1z"/>
<path fill="#fff" d="M109.6,72.1l-0.3-0.3l0.5-0.5l-0.5-0.5l0.3-0.3l0.8,0.8L109.6,72.1z"/>
<path fill="#fff" d="M106.8,72.1l-0.3-0.3l0.5-0.5l-0.5-0.5l0.3-0.3l0.8,0.8L106.8,72.1z"/>
<path fill="#fff" d="M104,72.1l-0.3-0.3l0.5-0.5l-0.5-0.5l0.3-0.3l0.8,0.8L104,72.1z"/>
<path fill="#fff" d="M101.1,72.1l-0.3-0.3l0.5-0.5l-0.5-0.5l0.3-0.3l0.8,0.8L101.1,72.1z"/>
<path fill="#fff" d="M98.3,72.1L98,71.8l0.5-0.5L98,70.7l0.3-0.3l0.8,0.8L98.3,72.1z"/>
<path fill="#fff" d="M95.5,72.1l-0.3-0.3l0.5-0.5l-0.5-0.5l0.3-0.3l0.8,0.8L95.5,72.1z"/>
<path fill="#fff" d="M92.6,72.1l-0.3-0.3l0.5-0.5l-0.5-0.5l0.3-0.3l0.8,0.8L92.6,72.1z"/>
<path fill="#fff" d="M89.8,72.1l-0.3-0.3l0.5-0.5l-0.5-0.5l0.3-0.3l0.8,0.8L89.8,72.1z"/>
<path fill="#fff" d="M87,72.1l-0.3-0.3l0.5-0.5l-0.5-0.5l0.3-0.3l0.8,0.8L87,72.1z"/>
<path fill="#fff" d="M84.1,72.1l-0.3-0.3l0.5-0.5l-0.5-0.5l0.3-0.3l0.8,0.8L84.1,72.1z"/>
<path fill="#fff" d="M81.3,72.1L81,71.8l0.5-0.5L81,70.7l0.3-0.3l0.8,0.8L81.3,72.1z"/>
<path fill="#fff" d="M78.5,72.1l-0.3-0.3l0.5-0.5l-0.5-0.5l0.3-0.3l0.8,0.8L78.5,72.1z"/>
<path fill="#fff" d="M75.6,72.1l-0.3-0.3l0.5-0.5l-0.5-0.5l0.3-0.3l0.8,0.8L75.6,72.1z"/>
<path fill="#fff" d="M72.8,72.1l-0.3-0.3l0.5-0.5l-0.5-0.5l0.3-0.3l0.8,0.8L72.8,72.1z"/>
<path fill="#fff" d="M70,72.1l-0.3-0.3l0.5-0.5l-0.5-0.5l0.3-0.3l0.8,0.8L70,72.1z"/>
<path fill="#fff" d="M67.1,72.1l-0.3-0.3l0.5-0.5l-0.5-0.5l0.3-0.3l0.8,0.8L67.1,72.1z"/>
<path fill="#fff" d="M64.3,72.1L64,71.8l0.5-0.5L64,70.7l0.3-0.3l0.8,0.8L64.3,72.1z"/>
<path fill="#fff" d="M61.4,72.1l-0.3-0.3l0.5-0.5l-0.5-0.5l0.3-0.3l0.8,0.8L61.4,72.1z"/>
<path fill="#fff" d="M58.6,72.1l-0.3-0.3l0.5-0.5l-0.5-0.5l0.3-0.3l0.8,0.8L58.6,72.1z"/>
<path fill="#fff" d="M55.8,72.1l-0.3-0.3l0.5-0.5l-0.5-0.5l0.3-0.3l0.8,0.8L55.8,72.1z"/>
<path fill="#fff" d="M52.9,72.1l-0.3-0.3l0.5-0.5l-0.5-0.5l0.3-0.3l0.8,0.8L52.9,72.1z"/>
<path fill="#fff" d="M50.1,72.1l-0.3-0.3l0.5-0.5l-0.5-0.5l0.3-0.3l0.8,0.8L50.1,72.1z"/>
<path fill="#fff" d="M47.3,72.1L47,71.8l0.5-0.5L47,70.7l0.3-0.3l0.8,0.8L47.3,72.1z"/>
<path fill="#fff" d="M44.4,72.1l-0.3-0.3l0.5-0.5l-0.5-0.5l0.3-0.3l0.8,0.8L44.4,72.1z"/>
<path fill="#fff" d="M41.6,72.1l-0.3-0.3l0.5-0.5l-0.5-0.5l0.3-0.3l0.8,0.8L41.6,72.1z"/>
<path fill="#fff" d="M38.8,72.1l-0.3-0.3l0.5-0.5l-0.5-0.5l0.3-0.3l0.8,0.8L38.8,72.1z"/>
<path fill="#fff" d="M35.9,72.1l-0.3-0.3l0.5-0.5l-0.5-0.5l0.3-0.3l0.8,0.8L35.9,72.1z"/>
<path fill="#fff" d="M33.1,72.1l-0.3-0.3l0.5-0.5l-0.5-0.5l0.3-0.3l0.8,0.8L33.1,72.1z"/>
<path fill="#fff" d="M30.3,72.1L30,71.8l0.5-0.5L30,70.7l0.3-0.3l0.8,0.8L30.3,72.1z"/>
<path fill="#fff" d="M27.4,72.1l-0.3-0.3l0.5-0.5l-0.5-0.5l0.3-0.3l0.8,0.8L27.4,72.1z"/>
<path fill="#fff" d="M24.6,72.1l-0.3-0.3l0.5-0.5l-0.5-0.5l0.3-0.3l0.8,0.8L24.6,72.1z"/>
<path fill="#fff" d="M21.8,72.1l-0.3-0.3l0.5-0.5l-0.5-0.5l0.3-0.3l0.8,0.8L21.8,72.1z"/>
<path fill="#fff" d="M18.9,72.1l-0.3-0.3l0.5-0.5l-0.5-0.5l0.3-0.3l0.8,0.8L18.9,72.1z"/>
<path fill="#fff" d="M16.1,72.1l-0.3-0.3l0.5-0.5l-0.5-0.5l0.3-0.3l0.8,0.8L16.1,72.1z"/>
<path fill="#fff" d="M13.3,72.1L13,71.8l0.5-0.5L13,70.7l0.3-0.3l0.8,0.8L13.3,72.1z"/>
<path fill="#fff" d="M10.4,72.1l-0.3-0.3l0.5-0.5l-0.5-0.5l0.3-0.3l0.8,0.8L10.4,72.1z"/>
<path fill="#fff" d="M7.6,72.1l-0.3-0.3l0.5-0.5l-0.5-0.5l0.3-0.3l0.8,0.8L7.6,72.1z"/>
<path fill="#fff" d="M112.3,12.5l0.3,0.3l-0.5,0.5l0.5,0.5l-0.3,0.3l-0.8-0.8L112.3,12.5z"/>
<path fill="#fff" d="M115.2,12.5l0.3,0.3l-0.5,0.5l0.5,0.5l-0.3,0.3l-0.8-0.8L115.2,12.5z"/>
<path fill="#fff" d="M118,12.5l0.3,0.3l-0.5,0.5l0.5,0.5l-0.3,0.3l-0.8-0.8L118,12.5z"/>
<path fill="#fff" d="M120.8,12.5l0.3,0.3l-0.5,0.5l0.5,0.5l-0.3,0.3l-0.8-0.8L120.8,12.5z"/>
<path fill="#fff" d="M123.7,12.5l0.3,0.3l-0.5,0.5l0.5,0.5l-0.3,0.3l-0.8-0.8L123.7,12.5z"/>
<path fill="#fff" d="M126.5,12.5l0.3,0.3l-0.5,0.5l0.5,0.5l-0.3,0.3l-0.8-0.8L126.5,12.5z"/>
<path fill="#fff" d="M129.3,12.5l0.3,0.3l-0.5,0.5l0.5,0.5l-0.3,0.3l-0.8-0.8L129.3,12.5z"/>
<path fill="#fff" d="M132.2,12.5l0.3,0.3l-0.5,0.5l0.5,0.5l-0.3,0.3l-0.8-0.8L132.2,12.5z"/>
<path fill="#fff" d="M135,12.5l0.3,0.3l-0.5,0.5l0.5,0.5l-0.3,0.3l-0.8-0.8L135,12.5z"/>
<path fill="#fff" d="M137.8,12.5l0.3,0.3l-0.5,0.5l0.5,0.5l-0.3,0.3l-0.8-0.8L137.8,12.5z"/>
<path fill="#fff" d="M140.7,12.5l0.3,0.3l-0.5,0.5l0.5,0.5l-0.3,0.3l-0.8-0.8L140.7,12.5z"/>
<path fill="#fff" d="M143.5,12.5l0.3,0.3l-0.5,0.5l0.5,0.5l-0.3,0.3l-0.8-0.8L143.5,12.5z"/>
<path fill="#fff" d="M146.3,12.5l0.3,0.3l-0.5,0.5l0.5,0.5l-0.3,0.3l-0.8-0.8L146.3,12.5z"/>
<path fill="#fff" d="M149.2,12.5l0.3,0.3l-0.5,0.5l0.5,0.5l-0.3,0.3l-0.8-0.8L149.2,12.5z"/>
<path fill="#fff" d="M152,12.5l0.3,0.3l-0.5,0.5l0.5,0.5l-0.3,0.3l-0.8-0.8L152,12.5z"/>
<path fill="#fff" d="M87.3,14.1L87,13.8l0.5-0.5L87,12.7l0.3-0.3l0.8,0.8L87.3,14.1z"/>
<path fill="#fff" d="M84.4,14.1l-0.3-0.3l0.5-0.5l-0.5-0.5l0.3-0.3l0.8,0.8L84.4,14.1z"/>
<path fill="#fff" d="M81.6,14.1l-0.3-0.3l0.5-0.5l-0.5-0.5l0.3-0.3l0.8,0.8L81.6,14.1z"/>
<path fill="#fff" d="M78.8,14.1l-0.3-0.3l0.5-0.5l-0.5-0.5l0.3-0.3l0.8,0.8L78.8,14.1z"/>
<path fill="#fff" d="M75.9,14.1l-0.3-0.3l0.5-0.5l-0.5-0.5l0.3-0.3l0.8,0.8L75.9,14.1z"/>
<path fill="#fff" d="M73.1,14.1l-0.3-0.3l0.5-0.5l-0.5-0.5l0.3-0.3l0.8,0.8L73.1,14.1z"/>
<path fill="#fff" d="M70.3,14.1L70,13.8l0.5-0.5L70,12.7l0.3-0.3l0.8,0.8L70.3,14.1z"/>
<path fill="#fff" d="M67.4,14.1l-0.3-0.3l0.5-0.5l-0.5-0.5l0.3-0.3l0.8,0.8L67.4,14.1z"/>
<path fill="#fff" d="M64.6,14.1l-0.3-0.3l0.5-0.5l-0.5-0.5l0.3-0.3l0.8,0.8L64.6,14.1z"/>
<path fill="#fff" d="M61.8,14.1l-0.3-0.3l0.5-0.5l-0.5-0.5l0.3-0.3l0.8,0.8L61.8,14.1z"/>
<path fill="#fff" d="M58.9,14.1l-0.3-0.3l0.5-0.5l-0.5-0.5l0.3-0.3l0.8,0.8L58.9,14.1z"/>
<path fill="#fff" d="M56.1,14.1l-0.3-0.3l0.5-0.5l-0.5-0.5l0.3-0.3l0.8,0.8L56.1,14.1z"/>
<path fill="#fff" d="M53.3,14.1L53,13.8l0.5-0.5L53,12.7l0.3-0.3l0.8,0.8L53.3,14.1z"/>
<path fill="#fff" d="M50.4,14.1l-0.3-0.3l0.5-0.5l-0.5-0.5l0.3-0.3l0.8,0.8L50.4,14.1z"/>
<path fill="#fff" d="M47.6,14.1l-0.3-0.3l0.5-0.5l-0.5-0.5l0.3-0.3l0.8,0.8L47.6,14.1z"/>
</svg>
