<?xml version="1.0" encoding="utf-8"?>
<!-- Generator: Adobe Illustrator 23.0.1, SVG Export Plug-In . SVG Version: 6.00 Build 0)  -->
<svg version="1.1" id="Capa_1" xmlns="http://www.w3.org/2000/svg" xmlns:xlink="http://www.w3.org/1999/xlink" x="0px" y="0px"
	 viewBox="0 0 170 67" style="enable-background:new 0 0 170 67;" xml:space="preserve">
<path d="M25.4,31.2c-1.6,0.6-2.9,1.5-3.7,2.8c-0.9,1.3-1.4,2.9-1.4,4.7c0,0.9,0.1,1.4,0.3,1.8c0.2,0.3,0.3,0.5,0.3,0.6
	c-1.2,0-2.1-0.3-2.7-0.8s-0.9-1.4-0.9-2.6c0-1.4,0.6-2.9,1.8-4.3c1.2-1.4,2.7-2.5,4.6-3.3c1.9-0.9,3.7-1.3,5.6-1.3
	c0.3,0,0.8,0,1.4,0.1l0.3,20.9L38,29.1h4.3l0.3,20.8l7.1-20.8h2.4l-9.6,25.4h-4.9l-0.4-17.3l-6.5,17.3h-4.9L25.4,31.2z"/>
<path d="M50.7,53.3c-0.9-0.9-1.4-2.2-1.4-4.1c0-1.5,0.3-3.2,0.9-5.1c0.6-1.9,1.6-3.5,3.1-4.8c1.4-1.4,3.1-2,5.3-2
	c2.9,0,4.3,1.8,4.3,5.4l0,0c0.1,0,0.2,0,0.3,0c0.8,0,1.6-0.2,2.6-0.6c0.9-0.4,1.9-0.9,2.6-1.4l0.3,0.9c-0.7,0.7-1.5,1.3-2.6,1.8
	c-1,0.5-2.2,0.9-3.5,1c-0.2,2-0.7,3.8-1.4,5.4c-0.8,1.5-1.7,2.7-2.9,3.6c-1.2,0.9-2.5,1.3-3.8,1.3C53,54.6,51.7,54.2,50.7,53.3z
	 M57.6,50.6c0.5-0.6,1-1.4,1.4-2.6c0.4-1.1,0.7-2.3,0.9-3.6c-0.6-0.2-0.9-0.6-0.9-1.4c0-0.9,0.3-1.5,1-1.9c-0.1-0.8-0.2-1.3-0.3-1.5
	c-0.2-0.3-0.5-0.4-0.9-0.4c-0.8,0-1.4,0.5-2.2,1.6c-0.7,1.1-1.3,2.4-1.7,3.9c-0.4,1.5-0.7,2.9-0.7,4s0.1,1.8,0.3,2.2
	c0.3,0.3,0.7,0.6,1.4,0.6C56.5,51.6,57.1,51.3,57.6,50.6z"/>
<path d="M66.9,37.5h4.9l-0.4,2c0.8-0.7,1.4-1.2,2.1-1.5c0.6-0.3,1.3-0.5,2-0.5s1.3,0.3,1.7,0.8c0.4,0.5,0.6,1.1,0.6,1.8
	s-0.3,1.3-0.7,1.7c-0.4,0.5-1,0.8-1.8,0.8c-0.5,0-0.9-0.1-1-0.3c-0.2-0.3-0.3-0.6-0.4-1c-0.1-0.3-0.2-0.5-0.2-0.7s-0.2-0.2-0.3-0.2
	c-0.5,0-0.9,0.1-1.2,0.3s-0.8,0.5-1.3,1l-2.7,12.9h-4.9L66.9,37.5z"/>
<path d="M87,53.7c-0.8-0.7-1.1-1.6-1.1-2.9c0-0.5,0.1-1.1,0.2-1.8l0.3-1.4c0.1-0.4,0.2-0.8,0.2-1.3c0-1.1-0.4-1.6-1.2-1.6
	c-0.3,0-0.8,0.1-1.1,0.3c-0.4,0.2-0.9,0.5-1.4,0.9L81,54.5h-4.9L81,31.3l5-0.7l-2.6,12l6.5-5.2h3.4l-6.8,4.8
	c0.3-0.1,0.7-0.2,1.1-0.2c1.2,0,2.1,0.3,2.8,1.1c0.6,0.8,0.9,1.7,0.9,2.9c0,0.5-0.1,0.9-0.2,1.3L91,49c-0.1,0.4-0.2,0.8-0.2,1.1
	c0,0.9,0.4,1.3,1.4,1.3c0.7,0,1.2-0.3,1.6-0.8c0.4-0.5,0.9-1.3,1.2-2.3h1.4c-1.4,4.2-3.5,6.3-6.3,6.3C88.8,54.7,87.7,54.4,87,53.7z"
	/>
<path d="M96.1,54.1c-0.8-0.4-1.3-0.9-1.7-1.6c-0.3-0.7-0.5-1.4-0.5-2.1c0-0.8,0.2-1.4,0.5-2s0.8-0.9,1.3-1.2
	c0.9-1.6,1.6-3.2,2.3-4.8c0.7-1.6,1.3-3.4,1.9-5.3l5-0.7c0.1,2.9,0.3,6,0.6,9.4c0.1,1.4,0.2,2.4,0.2,3c0,0.5-0.1,0.9-0.2,1.3
	c1.1-0.6,1.9-1.2,2.5-1.7h1.4c-1.4,1.7-3.1,3.1-5.2,4.3c-0.7,0.7-1.4,1.2-2.5,1.5c-0.9,0.3-2,0.5-2.9,0.5
	C97.8,54.7,96.9,54.5,96.1,54.1z M99.9,51.3c0.6-0.5,0.9-1.3,0.9-2.4c0-0.7-0.1-1.6-0.2-2.9c-0.3-2.6-0.3-4.3-0.4-5.2
	c-0.5,1.8-1.4,3.9-2.7,6.5c0.5,0.3,0.8,0.7,0.8,1.2c0,0.4-0.2,0.9-0.4,1.2c-0.3,0.3-0.7,0.5-1.1,0.5c-0.5,0-0.8-0.2-0.9-0.4
	c0,0.9,0.2,1.4,0.5,1.8c0.3,0.4,0.9,0.6,1.6,0.6C98.6,52,99.4,51.8,99.9,51.3z"/>
<path d="M117.2,53.6c-0.7-0.8-0.9-1.6-0.9-2.7c0-0.5,0.1-1,0.2-1.6c0.1-0.6,0.3-1.2,0.3-1.8c0.1-0.6,0.2-0.9,0.3-1.1
	c0.2-0.8,0.3-1.6,0.5-2.4c0.2-0.8,0.3-1.4,0.3-1.9c0-1.2-0.4-1.7-1.2-1.7c-0.6,0-1.1,0.3-1.5,0.9c-0.4,0.6-0.9,1.4-1.1,2.3
	l-2.3,10.9h-4.9l4.9-23.1l5-0.7l-1.9,8.6c1.1-1.3,2.5-1.9,4-1.9c1.2,0,2,0.3,2.7,0.9s1,1.6,1,2.9c0,0.7-0.1,1.4-0.3,2.2
	c-0.2,0.8-0.4,1.8-0.7,3c-0.2,0.7-0.3,1.4-0.5,2c-0.2,0.7-0.3,1.2-0.3,1.6c0,0.4,0.1,0.8,0.3,1c0.2,0.3,0.6,0.3,1,0.3
	c0.7,0,1.2-0.3,1.6-0.8c0.4-0.5,0.9-1.3,1.2-2.3h1.4c-0.9,2.5-1.8,4.2-2.9,5c-1.1,0.9-2.2,1.3-3.4,1.3
	C118.9,54.7,117.9,54.4,117.2,53.6z"/>
<path d="M126.2,53.3c-0.9-0.9-1.4-2.2-1.4-4.1c0-1.5,0.3-3.2,0.9-5.1c0.6-1.9,1.6-3.5,3.1-4.8c1.4-1.4,3.1-2,5.3-2
	c2.9,0,4.3,1.8,4.3,5.4l0,0c0.1,0,0.2,0,0.3,0c0.8,0,1.6-0.2,2.6-0.6s1.9-0.9,2.6-1.4l0.3,0.9c-0.7,0.7-1.5,1.3-2.6,1.8
	c-1,0.5-2.2,0.9-3.5,1c-0.2,2-0.7,3.8-1.4,5.4c-0.8,1.5-1.7,2.7-2.9,3.6c-1.2,0.9-2.5,1.3-3.8,1.3C128.5,54.6,127.2,54.2,126.2,53.3
	z M133.1,50.6c0.5-0.6,1-1.4,1.4-2.6c0.4-1.1,0.7-2.3,0.9-3.6c-0.6-0.2-0.9-0.6-0.9-1.4c0-0.9,0.3-1.5,1-1.9
	c-0.1-0.8-0.2-1.3-0.3-1.5s-0.5-0.4-0.9-0.4c-0.8,0-1.4,0.5-2.2,1.6c-0.7,1.1-1.3,2.4-1.7,3.9c-0.4,1.5-0.7,2.9-0.7,4
	s0.1,1.8,0.3,2.2c0.3,0.3,0.7,0.6,1.4,0.6C132,51.6,132.6,51.3,133.1,50.6z"/>
<path d="M142.7,36.3h4.9l-0.5,2.6c1.1-0.9,2.5-1.4,4-1.4c1.3,0,2.3,0.4,3.1,1.3c0.8,0.9,1.1,2.2,1.1,4.1c0,1.8-0.3,3.6-0.8,5.4
	c-0.5,1.8-1.4,3.4-2.6,4.7c-1.3,1.3-2.9,2-4.9,2c-1.4,0-2.4-0.4-2.9-1.2l-1.8,8.3l-5.1,1.2L142.7,36.3z M148.4,50.2
	c0.7-1,1.3-2.2,1.5-3.7c0.3-1.4,0.5-2.7,0.5-4c0-1.9-0.6-2.8-1.7-2.8c-0.4,0-0.9,0.2-1.3,0.4s-0.8,0.7-1.1,1.2l-2,9.5
	c0.2,0.5,0.6,0.8,1.3,0.8C146.8,51.7,147.8,51.2,148.4,50.2z"/>
<path d="M84.9,11.9c0,0,2.2,0.6,3.2-1.1s2.6-3.7,4.6-4.1c0,0-1.8-2.6-3.7-0.9C87.1,7.5,87.7,10.5,84.9,11.9z"/>
<path d="M85,11.9c0,0-2.2,0.6-3.2-1.1c-1-1.7-2.6-3.7-4.6-4.1c0,0,1.8-2.6,3.7-0.9C82.8,7.5,82.2,10.5,85,11.9z"/>
<path d="M84.9,2.3c0,1.4,2.1,3.5,1.7,6.6c-0.3,2.6-1.7,3.1-1.7,3.1s-1.4-0.6-1.7-3.1C82.8,5.7,85,3.6,84.9,2.3z"/>
<path d="M76.9,10.4c-0.1-0.2-0.1-0.4,0.2-0.5c0.2-0.1,0.4-0.1,0.6,0c0.3,0.3,0.3,0.8,0.2,1c-0.3,0.3-0.7,0.4-1,0.3
	c-0.2-0.1-0.3-0.2-0.5-0.3c-0.2-0.2-0.3-0.3-0.3-0.5C76,10.2,76,9.7,76.2,9.4c0.2-0.3,0.4-0.6,0.8-0.8s0.7-0.3,1-0.3
	c0.2,0,0.3,0,0.5,0s0.3,0,0.5,0.1c0.7,0.2,1.3,0.6,1.7,1.1c0.1,0.1,0.1,0.2,0.2,0.2L81,9.8l0.3,0.4l0.3,0.4l0.3,0.3
	c0.3,0.5,0.9,0.9,1.4,1.2c0.3,0.1,0.6,0.2,0.9,0.2c0.3,0,0.6-0.1,0.9-0.3l0,0h0.1v0.1c-0.3,0.3-0.6,0.3-0.9,0.4s-0.7,0-1-0.2
	c-0.6-0.3-1.1-0.8-1.5-1.3l-0.3-0.4l-0.3-0.4c-0.1-0.2-0.2-0.3-0.3-0.4l-0.2-0.2c-0.1-0.1-0.1-0.1-0.2-0.2c-0.4-0.4-0.9-0.9-1.4-1
	c-0.3,0.2-0.4,0.2-0.6,0.2s-0.3,0-0.4,0c-0.3,0-0.6,0.1-0.9,0.3c-0.3,0.2-0.4,0.3-0.6,0.6c-0.1,0.3-0.2,0.5-0.1,0.8
	c0.1,0.2,0.1,0.3,0.2,0.3c0.1,0.1,0.2,0.2,0.3,0.2c0.1,0,0.3,0.1,0.4,0c0.1,0,0.2,0,0.2-0.1c0.1,0,0.1-0.1,0.2-0.1
	c0.1-0.1,0.1-0.3,0.1-0.3c0-0.2-0.1-0.3-0.2-0.3c-0.1-0.1-0.3-0.1-0.3,0c-0.1,0.1-0.2,0.2-0.1,0.3L76.9,10.4
	C77,10.5,76.9,10.5,76.9,10.4L76.9,10.4z"/>
<path d="M85.4,12.2c0.3,0.2,0.5,0.3,0.9,0.3s0.6-0.1,0.9-0.2c0.5-0.3,1-0.7,1.4-1.2c0.2-0.3,0.3-0.5,0.5-0.8l0.3-0.4
	c0.1-0.2,0.2-0.3,0.3-0.4c0.4-0.5,1-0.9,1.7-1.1c0.7-0.2,1.4-0.1,2,0.3c0.3,0.2,0.6,0.4,0.8,0.8c0.2,0.3,0.2,0.8,0,1.1
	c0,0.1-0.1,0.2-0.1,0.3c-0.1,0.1-0.1,0.2-0.2,0.3c-0.2,0.2-0.3,0.3-0.5,0.3c-0.2,0.1-0.4,0-0.6,0c-0.2-0.1-0.3-0.2-0.4-0.3
	c-0.3-0.3-0.2-0.9,0.2-1c0.2-0.1,0.4-0.1,0.5,0.1c0.1,0.1,0.2,0.2,0.2,0.3s0,0.1,0,0.2c0,0.1-0.1,0.1-0.1,0.1H93v-0.1
	c0.1-0.1,0-0.3-0.1-0.3c-0.1-0.1-0.3-0.1-0.3,0c-0.1,0-0.1,0.1-0.1,0.2c0,0.1-0.1,0.1-0.1,0.2c0,0.2,0,0.3,0.1,0.3
	c0.1,0.1,0.2,0.2,0.3,0.2c0.2,0,0.3,0,0.4,0c0.1,0,0.3-0.1,0.3-0.2c0.1-0.1,0.1-0.1,0.1-0.2c0-0.1,0.1-0.1,0.1-0.2
	c0.1-0.3,0.1-0.5-0.1-0.8c-0.1-0.3-0.3-0.4-0.6-0.6c-0.5-0.3-1.1-0.3-1.7-0.3c-0.6,0.2-1.1,0.5-1.4,1c-0.2,0.3-0.3,0.5-0.5,0.8
	s-0.3,0.5-0.6,0.8c-0.4,0.5-0.9,1-1.5,1.3c-0.3,0.2-0.7,0.2-1,0.2c-0.3,0-0.7-0.2-0.9-0.4v-0.1C85.4,12.2,85.4,12.2,85.4,12.2
	L85.4,12.2z"/>
<path d="M77.3,10.4c0,0.1-0.1,0.2-0.2,0.2c-0.1,0-0.2-0.1-0.2-0.2c0-0.1,0.1-0.2,0.2-0.2C77.2,10.2,77.3,10.3,77.3,10.4z"/>
<path d="M93.2,10.3c0,0.1-0.1,0.2-0.2,0.2c-0.1,0-0.2-0.1-0.2-0.2c0-0.1,0.1-0.2,0.2-0.2C93.1,10.2,93.2,10.2,93.2,10.3z"/>
<path d="M34.1,18.2c-0.3,0.4-0.7,0.9-1,1.3c-0.4,0.4-0.9,0.8-1.3,1.1c0.3,0.3,0.6,0.7,0.9,1.1s0.4,0.9,0.6,1.3l-0.8,0.6
	c-0.3-0.6-0.5-1.1-0.9-1.6c-0.4-0.5-0.9-1-1.4-1.4c0.7-0.4,1.3-0.9,1.9-1.4c0.6-0.5,1.1-1.1,1.5-1.6L34.1,18.2z M37.5,18.2
	c-0.3,0.4-0.7,0.9-1,1.3c-0.4,0.4-0.9,0.8-1.3,1.1c0.3,0.3,0.6,0.7,0.9,1.1s0.4,0.9,0.6,1.3l-0.8,0.6c-0.3-0.6-0.5-1.1-0.9-1.6
	c-0.4-0.5-0.9-1-1.4-1.4c0.7-0.4,1.3-0.9,1.9-1.4c0.6-0.5,1.1-1.1,1.5-1.6L37.5,18.2z"/>
<path d="M53.5,25.6h-0.6l-2.1-6.1c-0.2-0.4-0.3-0.9-0.5-1.4c-0.2-0.5-0.3-1-0.5-1.7l0,0c-0.2,0.6-0.3,1.2-0.5,1.7
	c-0.2,0.5-0.3,0.9-0.5,1.4l-2.1,6.1H46l-4-11.6h1.7l1.9,5.3c0.2,0.3,0.3,0.8,0.4,1.3c0.2,0.4,0.3,0.9,0.4,1.4l0,0
	c0.2-0.4,0.3-0.9,0.4-1.4s0.3-0.9,0.4-1.3l1.8-5.3h1.4l1.9,5.3c0.2,0.3,0.3,0.8,0.4,1.2c0.2,0.4,0.3,0.9,0.4,1.4l0,0
	c0.1-0.4,0.3-0.9,0.4-1.4c0.2-0.4,0.3-0.9,0.4-1.2l1.9-5.3h1.6L53.5,25.6z"/>
<path d="M65.2,20.3c0,0.3,0,0.5-0.1,0.7l-0.9,0.9h-4.8c0,0.3,0.1,0.5,0.2,0.8s0.3,0.5,0.5,0.8s0.5,0.4,0.9,0.6
	c0.3,0.2,0.8,0.3,1.3,0.3s1-0.1,1.4-0.2c0.3-0.1,0.8-0.3,1.2-0.6l-0.4,1.7c-0.3,0.2-0.6,0.3-1,0.3s-0.9,0.2-1.4,0.2
	c-0.6,0-1.1-0.1-1.6-0.3s-1-0.5-1.4-0.9c-0.4-0.3-0.7-0.9-0.9-1.4c-0.3-0.5-0.3-1.1-0.3-1.7c0-0.7,0.1-1.3,0.3-1.9
	c0.3-0.6,0.6-0.9,0.9-1.4c0.3-0.4,0.9-0.6,1.3-0.9c0.5-0.2,0.9-0.3,1.4-0.3c0.6,0,1,0.1,1.5,0.3c0.4,0.2,0.8,0.4,1.1,0.7
	c0.3,0.3,0.5,0.6,0.7,1C65.1,19.5,65.2,19.9,65.2,20.3z M63.6,20.3c0-0.2,0-0.4-0.1-0.6s-0.2-0.4-0.3-0.6c-0.2-0.2-0.3-0.3-0.6-0.4
	c-0.3-0.1-0.4-0.2-0.8-0.2c-0.3,0-0.5,0.1-0.8,0.2s-0.5,0.3-0.7,0.4c-0.3,0.2-0.4,0.3-0.5,0.6s-0.3,0.5-0.3,0.8h4.1
	C63.6,20.4,63.6,20.4,63.6,20.3z"/>
<path d="M74.4,21.4c0,0.7-0.1,1.3-0.3,1.8c-0.3,0.5-0.5,1-0.9,1.4c-0.4,0.3-0.9,0.7-1.4,0.9c-0.6,0.2-1.2,0.3-1.9,0.3
	c-0.6,0-1.2-0.1-1.6-0.3c-0.5-0.2-0.9-0.3-1.2-0.5V12.7h1.6v4.7c0.2-0.1,0.3-0.1,0.5-0.2s0.5-0.1,0.9-0.1c0.6,0,1.1,0.1,1.7,0.3
	c0.6,0.2,1,0.5,1.4,0.9c0.4,0.3,0.8,0.8,0.9,1.4C74.3,20.1,74.4,20.7,74.4,21.4z M72.8,21.4c0-0.4-0.1-0.9-0.3-1.2
	c-0.2-0.3-0.3-0.6-0.6-0.9s-0.6-0.4-0.9-0.5c-0.3-0.1-0.7-0.2-1-0.2c-0.3,0-0.6,0-0.9,0.1c-0.3,0.1-0.4,0.2-0.6,0.3v5.1
	c0.2,0.1,0.3,0.1,0.5,0.2c0.2,0.1,0.4,0.1,0.8,0.1c0.9,0,1.7-0.3,2.2-0.8C72.5,22.9,72.8,22.2,72.8,21.4z"/>
<path d="M80.3,25.5V14.1H82V24h5v1.4H80.3z"/>
<path d="M93.8,25.6c-0.3-0.1-0.5-0.2-0.7-0.3c-0.2-0.2-0.3-0.4-0.4-0.7c-0.3,0.3-0.6,0.7-1,0.8c-0.4,0.2-0.9,0.3-1.3,0.3
	c-0.4,0-0.8-0.1-1.1-0.2c-0.3-0.2-0.6-0.3-0.9-0.5c-0.3-0.3-0.4-0.5-0.5-0.8c-0.1-0.3-0.2-0.6-0.2-0.9c0-0.4,0.1-0.8,0.3-1
	c0.2-0.3,0.3-0.6,0.6-0.8c0.3-0.3,0.5-0.4,0.9-0.5s0.7-0.2,1-0.3l1.9-0.2V20c0-0.3-0.1-0.7-0.3-0.9c-0.3-0.3-0.7-0.4-1.2-0.4
	c-0.4,0-0.8,0.1-1.2,0.2c-0.4,0.1-0.8,0.3-1,0.4l-0.3-1.4c0.3-0.3,0.8-0.4,1.2-0.5c0.4-0.1,0.9-0.2,1.4-0.2c0.4,0,0.9,0.1,1.3,0.2
	c0.3,0.1,0.7,0.3,1,0.6c0.3,0.3,0.5,0.6,0.7,0.9s0.3,0.8,0.3,1.3v3.2c0,0.3,0.1,0.7,0.3,0.9c0.2,0.2,0.4,0.3,0.7,0.4L93.8,25.6z
	 M92.3,21.7l-1.6,0.2c-0.5,0.1-0.9,0.2-1.1,0.4s-0.3,0.5-0.3,0.9c0,0.3,0.1,0.5,0.3,0.8s0.5,0.3,0.8,0.3c0.3,0,0.4-0.1,0.7-0.2
	c0.3-0.1,0.4-0.3,0.6-0.4s0.3-0.3,0.4-0.6c0.1-0.3,0.2-0.4,0.2-0.7L92.3,21.7L92.3,21.7z"/>
<path d="M99.7,24.7c-0.3,0.8-0.6,1.4-0.9,2c-0.3,0.5-0.7,1-1,1.4c-0.3,0.4-0.7,0.7-1.1,1c-0.3,0.3-0.8,0.5-1.1,0.7l-1-1
	c0.3-0.2,0.7-0.3,1-0.5c0.3-0.2,0.6-0.4,0.9-0.8s0.5-0.7,0.8-1.1c0.3-0.4,0.5-0.9,0.8-1.5l-3-7.4h1.7l1.5,3.7
	c0.1,0.3,0.3,0.5,0.3,0.9s0.3,0.6,0.3,0.9l0,0c0.1-0.3,0.3-0.6,0.3-0.9c0.1-0.3,0.3-0.6,0.3-0.9l1.5-3.7h1.5L99.7,24.7z"/>
<path d="M112,21.4c0,0.6-0.1,1.2-0.3,1.7c-0.3,0.5-0.5,0.9-0.9,1.4c-0.4,0.3-0.9,0.7-1.4,0.9s-1.1,0.3-1.7,0.3
	c-0.6,0-1.2-0.1-1.7-0.3c-0.5-0.2-1-0.5-1.4-0.9s-0.7-0.9-0.9-1.4s-0.3-1.1-0.3-1.7s0.1-1.2,0.3-1.7c0.3-0.5,0.5-0.9,0.9-1.4
	c0.4-0.4,0.9-0.7,1.4-0.9s1.1-0.3,1.7-0.3c0.6,0,1.2,0.1,1.7,0.3c0.5,0.2,0.9,0.5,1.4,0.9c0.4,0.3,0.7,0.9,0.9,1.4
	C112,20.2,112,20.8,112,21.4z M110.4,21.4c0-0.4-0.1-0.9-0.3-1.2c-0.2-0.3-0.3-0.7-0.6-0.9c-0.3-0.2-0.5-0.4-0.9-0.6
	c-0.3-0.2-0.7-0.2-1-0.2s-0.7,0.1-1,0.2s-0.6,0.3-0.9,0.6c-0.3,0.3-0.4,0.5-0.6,0.9c-0.2,0.3-0.3,0.8-0.3,1.2s0.1,0.8,0.3,1.2
	c0.2,0.3,0.3,0.7,0.6,0.9c0.3,0.3,0.5,0.4,0.9,0.6c0.3,0.2,0.7,0.2,1,0.2s0.7-0.1,1-0.2c0.3-0.2,0.6-0.3,0.9-0.6
	c0.3-0.3,0.4-0.5,0.6-0.9C110.3,22.2,110.4,21.8,110.4,21.4z"/>
<path d="M119.3,25.5l-0.1-0.8c-0.3,0.3-0.7,0.6-1,0.8c-0.3,0.2-0.9,0.3-1.5,0.3c-0.4,0-0.9-0.1-1.2-0.2c-0.3-0.2-0.7-0.3-0.9-0.6
	c-0.3-0.3-0.5-0.6-0.7-0.9s-0.3-0.8-0.3-1.2v-5.4h1.6v5.2c0,0.3,0,0.4,0.1,0.6c0.1,0.2,0.2,0.4,0.3,0.5c0.2,0.2,0.3,0.3,0.6,0.4
	c0.3,0.1,0.5,0.2,0.9,0.2s0.6-0.1,0.9-0.2s0.4-0.3,0.6-0.4c0.2-0.2,0.3-0.3,0.3-0.5c0.1-0.2,0.1-0.4,0.1-0.6v-5.2h1.6v8.1
	L119.3,25.5L119.3,25.5z"/>
<path d="M127.6,18.7h-2.6v4.5c0,0.3,0.1,0.6,0.3,0.8c0.3,0.2,0.5,0.3,0.9,0.3s0.7,0,0.9-0.1l-0.3,1.4c-0.2,0.1-0.4,0.1-0.8,0.1
	s-0.7-0.1-1-0.2s-0.6-0.3-0.9-0.5c-0.3-0.2-0.4-0.4-0.6-0.8c-0.2-0.3-0.2-0.7-0.2-1v-4.4h-1.6v-1.3h1.6v-1.6L125,15v2.5h2.9
	L127.6,18.7z"/>
<path d="M136.2,20.5c-0.7,0.3-1.3,0.9-1.9,1.4c-0.6,0.5-1.1,1.1-1.5,1.6l-0.5-0.7c0.3-0.4,0.6-0.9,1-1.3c0.4-0.3,0.9-0.8,1.3-1.1
	c-0.3-0.3-0.6-0.7-0.9-1.1c-0.3-0.4-0.4-0.9-0.6-1.3l0.8-0.6c0.2,0.6,0.5,1.1,0.9,1.6C135.2,19.7,135.7,20.1,136.2,20.5z
	 M139.6,20.5c-0.7,0.3-1.3,0.9-1.9,1.4c-0.6,0.5-1.1,1.1-1.5,1.6l-0.5-0.7c0.3-0.4,0.7-0.9,1-1.3c0.4-0.4,0.9-0.8,1.3-1.1
	c-0.3-0.3-0.6-0.7-0.9-1.1s-0.4-0.9-0.6-1.3l0.8-0.6c0.3,0.6,0.5,1.1,0.9,1.6S139.1,20.1,139.6,20.5z"/>
<path d="M163.1,59.8l-0.3-0.3l0.4-0.4l-0.4-0.4l0.3-0.3l0.7,0.7L163.1,59.8z"/>
<path d="M160.7,59.8l-0.3-0.3l0.4-0.4l-0.4-0.4l0.3-0.3l0.7,0.7L160.7,59.8z"/>
<path d="M158.3,59.8l-0.3-0.3l0.4-0.4l-0.4-0.4l0.3-0.3l0.7,0.7L158.3,59.8z"/>
<path d="M155.8,59.8l-0.3-0.3l0.4-0.4l-0.4-0.4l0.3-0.3l0.7,0.7L155.8,59.8z"/>
<path d="M153.4,59.8l-0.3-0.3l0.4-0.4l-0.4-0.4l0.3-0.3l0.7,0.7L153.4,59.8z"/>
<path d="M151.1,59.8l-0.3-0.3l0.4-0.4l-0.4-0.4l0.3-0.3l0.7,0.7L151.1,59.8z"/>
<path d="M148.6,59.8l-0.3-0.3l0.4-0.4l-0.4-0.4l0.3-0.3l0.7,0.7L148.6,59.8z"/>
<path d="M146.2,59.8l-0.3-0.3l0.4-0.4l-0.4-0.4l0.3-0.3l0.7,0.7L146.2,59.8z"/>
<path d="M143.8,59.8l-0.3-0.3l0.4-0.4l-0.4-0.4l0.3-0.3l0.7,0.7L143.8,59.8z"/>
<path d="M141.4,59.8l-0.3-0.3l0.4-0.4l-0.4-0.4l0.3-0.3l0.7,0.7L141.4,59.8z"/>
<path d="M139,59.8l-0.3-0.3l0.4-0.4l-0.4-0.4l0.3-0.3l0.7,0.7L139,59.8z"/>
<path d="M136.6,59.8l-0.3-0.3l0.4-0.4l-0.4-0.4l0.3-0.3l0.7,0.7L136.6,59.8z"/>
<path d="M134.1,59.8l-0.3-0.3l0.4-0.4l-0.4-0.4l0.3-0.3l0.7,0.7L134.1,59.8z"/>
<path d="M131.8,59.8l-0.3-0.3l0.4-0.4l-0.4-0.4l0.3-0.3l0.7,0.7L131.8,59.8z"/>
<path d="M129.4,59.8l-0.3-0.3l0.4-0.4l-0.4-0.4l0.3-0.3l0.7,0.7L129.4,59.8z"/>
<path d="M126.9,59.8l-0.3-0.3l0.4-0.4l-0.4-0.4l0.3-0.3l0.7,0.7L126.9,59.8z"/>
<path d="M124.5,59.8l-0.3-0.3l0.4-0.4l-0.4-0.4l0.3-0.3l0.7,0.7L124.5,59.8z"/>
<path d="M122.2,59.8l-0.3-0.3l0.4-0.4l-0.4-0.4l0.3-0.3l0.7,0.7L122.2,59.8z"/>
<path d="M119.7,59.8l-0.3-0.3l0.4-0.4l-0.4-0.4l0.3-0.3l0.7,0.7L119.7,59.8z"/>
<path d="M117.3,59.8l-0.3-0.3l0.4-0.4l-0.4-0.4l0.3-0.3l0.7,0.7L117.3,59.8z"/>
<path d="M114.9,59.8l-0.3-0.3l0.4-0.4l-0.4-0.4l0.3-0.3l0.7,0.7L114.9,59.8z"/>
<path d="M112.5,59.8l-0.3-0.3l0.4-0.4l-0.4-0.4l0.3-0.3l0.7,0.7L112.5,59.8z"/>
<path d="M110.1,59.8l-0.3-0.3l0.4-0.4l-0.4-0.4l0.3-0.3l0.7,0.7L110.1,59.8z"/>
<path d="M107.6,59.8l-0.3-0.3l0.4-0.4l-0.4-0.4l0.3-0.3l0.7,0.7L107.6,59.8z"/>
<path d="M105.2,59.8l-0.3-0.3l0.4-0.4l-0.4-0.4l0.3-0.3l0.7,0.7L105.2,59.8z"/>
<path d="M102.9,59.8l-0.3-0.3l0.4-0.4l-0.4-0.4l0.3-0.3l0.7,0.7L102.9,59.8z"/>
<path d="M100.4,59.8l-0.3-0.3l0.4-0.4l-0.4-0.4l0.3-0.3l0.7,0.7L100.4,59.8z"/>
<path d="M98,59.8l-0.3-0.3l0.4-0.4l-0.4-0.4l0.3-0.3l0.7,0.7L98,59.8z"/>
<path d="M95.6,59.8l-0.3-0.3l0.4-0.4l-0.4-0.4l0.3-0.3l0.7,0.7L95.6,59.8z"/>
<path d="M93.2,59.8l-0.3-0.3l0.4-0.4l-0.4-0.4l0.3-0.3l0.7,0.7L93.2,59.8z"/>
<path d="M90.8,59.8l-0.3-0.3l0.4-0.4l-0.4-0.4l0.3-0.3l0.7,0.7L90.8,59.8z"/>
<path d="M88.4,59.8l-0.3-0.3l0.4-0.4l-0.4-0.4l0.3-0.3l0.7,0.7L88.4,59.8z"/>
<path d="M85.9,59.8l-0.3-0.3l0.4-0.4l-0.4-0.4l0.3-0.3l0.7,0.7L85.9,59.8z"/>
<path d="M83.6,59.8l-0.3-0.3l0.4-0.4l-0.4-0.5l0.3-0.3l0.7,0.7L83.6,59.8z"/>
<path d="M81.2,59.8l-0.3-0.3l0.4-0.4l-0.4-0.4l0.3-0.3l0.7,0.7L81.2,59.8z"/>
<path d="M78.7,59.8l-0.3-0.3l0.4-0.4l-0.4-0.4l0.3-0.3l0.7,0.7L78.7,59.8z"/>
<path d="M76.3,59.8l-0.3-0.3l0.4-0.4l-0.4-0.4l0.3-0.3l0.7,0.7L76.3,59.8z"/>
<path d="M74,59.8l-0.3-0.3l0.4-0.4l-0.4-0.4l0.3-0.3l0.7,0.7L74,59.8z"/>
<path d="M71.5,59.8l-0.3-0.3l0.4-0.4l-0.4-0.4l0.3-0.3l0.7,0.7L71.5,59.8z"/>
<path d="M69.1,59.8l-0.3-0.3l0.4-0.4l-0.4-0.5l0.3-0.3l0.7,0.7L69.1,59.8z"/>
<path d="M66.7,59.8l-0.3-0.3l0.4-0.4l-0.4-0.4l0.3-0.3l0.7,0.7L66.7,59.8z"/>
<path d="M64.3,59.8L64,59.6l0.4-0.4L64,58.7l0.3-0.3l0.7,0.7L64.3,59.8z"/>
<path d="M61.9,59.8l-0.3-0.3l0.4-0.4l-0.4-0.4l0.3-0.3l0.7,0.7L61.9,59.8z"/>
<path d="M59.5,59.8l-0.3-0.3l0.4-0.4l-0.4-0.4l0.3-0.3l0.7,0.7L59.5,59.8z"/>
<path d="M57,59.8l-0.3-0.3l0.4-0.4l-0.4-0.4l0.3-0.3l0.7,0.7L57,59.8z"/>
<path d="M54.7,59.8l-0.3-0.3l0.4-0.4l-0.4-0.5l0.3-0.3l0.7,0.7L54.7,59.8z"/>
<path d="M52.2,59.8l-0.3-0.3l0.4-0.4l-0.4-0.4l0.3-0.3l0.7,0.7L52.2,59.8z"/>
<path d="M49.8,59.8l-0.3-0.3l0.4-0.4l-0.4-0.4l0.3-0.3l0.7,0.7L49.8,59.8z"/>
<path d="M47.4,59.8l-0.3-0.3l0.4-0.4l-0.4-0.4l0.3-0.3l0.7,0.7L47.4,59.8z"/>
<path d="M45,59.8l-0.3-0.3l0.4-0.4l-0.4-0.4l0.3-0.3l0.7,0.7L45,59.8z"/>
<path d="M42.6,59.8l-0.3-0.3l0.4-0.4l-0.4-0.4l0.3-0.3l0.7,0.7L42.6,59.8z"/>
<path d="M40.2,59.8L40,59.6l0.4-0.4L40,58.6l0.3-0.3l0.7,0.7L40.2,59.8z"/>
<path d="M37.7,59.8l-0.3-0.3l0.4-0.4l-0.4-0.4l0.3-0.3l0.7,0.7L37.7,59.8z"/>
<path d="M35.4,59.8l-0.3-0.3l0.4-0.4l-0.4-0.4l0.3-0.3l0.7,0.7L35.4,59.8z"/>
<path d="M33,59.8l-0.3-0.3l0.4-0.4l-0.4-0.4l0.3-0.3l0.7,0.7L33,59.8z"/>
<path d="M30.5,59.8l-0.3-0.3l0.4-0.4l-0.4-0.4l0.3-0.3l0.7,0.7L30.5,59.8z"/>
<path d="M28.1,59.8l-0.3-0.3l0.4-0.4l-0.4-0.4l0.3-0.3l0.7,0.7L28.1,59.8z"/>
<path d="M25.8,59.8l-0.3-0.3l0.4-0.4l-0.4-0.5l0.3-0.3l0.7,0.7L25.8,59.8z"/>
<path d="M23.3,59.8L23,59.6l0.4-0.4L23,58.7l0.3-0.3l0.7,0.7L23.3,59.8z"/>
<path d="M20.9,59.8l-0.3-0.3l0.4-0.4l-0.4-0.4l0.3-0.3l0.7,0.7L20.9,59.8z"/>
<path d="M18.5,59.8l-0.3-0.3l0.4-0.4l-0.4-0.4l0.3-0.3l0.7,0.7L18.5,59.8z"/>
<path d="M16.1,59.8l-0.3-0.3l0.4-0.4l-0.4-0.4l0.3-0.3l0.7,0.7L16.1,59.8z"/>
<path d="M13.7,59.8l-0.3-0.3l0.4-0.4l-0.4-0.4l0.3-0.3l0.7,0.7L13.7,59.8z"/>
<path d="M11.3,59.8l-0.3-0.3l0.4-0.4l-0.4-0.5l0.3-0.3L12,59L11.3,59.8z"/>
<path d="M8.8,59.8l-0.3-0.3L9,59.1l-0.4-0.4l0.3-0.3l0.7,0.7L8.8,59.8z"/>
<path d="M6.5,59.8l-0.3-0.3l0.4-0.4l-0.4-0.4l0.3-0.3l0.7,0.7L6.5,59.8z"/>
<path d="M95.5,9.1l0.3,0.3l-0.4,0.4l0.4,0.4l-0.3,0.3l-0.7-0.7L95.5,9.1z"/>
<path d="M97.9,9.1l0.3,0.3l-0.4,0.4l0.4,0.4l-0.3,0.3l-0.7-0.7L97.9,9.1z"/>
<path d="M100.3,9.1l0.3,0.3l-0.4,0.4l0.4,0.4l-0.3,0.3l-0.7-0.7L100.3,9.1z"/>
<path d="M102.7,9.1l0.3,0.3l-0.4,0.4l0.4,0.4l-0.3,0.3L102,9.8L102.7,9.1z"/>
<path d="M105.2,9.1l0.3,0.3L105,9.8l0.4,0.4l-0.3,0.3l-0.7-0.7L105.2,9.1z"/>
<path d="M107.5,9.1l0.3,0.3l-0.4,0.4l0.4,0.4l-0.3,0.3l-0.7-0.7L107.5,9.1z"/>
<path d="M109.9,9.1l0.3,0.3l-0.4,0.4l0.4,0.4l-0.3,0.3l-0.7-0.7L109.9,9.1z"/>
<path d="M112.4,9.1l0.3,0.3l-0.4,0.4l0.4,0.4l-0.3,0.3l-0.7-0.7L112.4,9.1z"/>
<path d="M114.8,9.1l0.3,0.3l-0.4,0.4l0.4,0.4l-0.3,0.3l-0.7-0.7L114.8,9.1z"/>
<path d="M117.1,9.1l0.3,0.3L117,9.8l0.4,0.4l-0.3,0.3l-0.7-0.7L117.1,9.1z"/>
<path d="M119.6,9.1l0.3,0.3l-0.4,0.4l0.4,0.4l-0.3,0.3l-0.7-0.7L119.6,9.1z"/>
<path d="M122,9.1l0.3,0.3l-0.4,0.4l0.4,0.4l-0.3,0.3l-0.7-0.7L122,9.1z"/>
<path d="M124.4,9.1l0.3,0.3l-0.4,0.4l0.4,0.4l-0.3,0.3l-0.7-0.7L124.4,9.1z"/>
<path d="M126.8,9.1l0.3,0.3l-0.4,0.4l0.4,0.4l-0.3,0.3l-0.7-0.7L126.8,9.1z"/>
<path d="M129.2,9.1l0.3,0.3L129,9.8l0.4,0.4l-0.3,0.3l-0.7-0.7L129.2,9.1z"/>
<path d="M74.2,10.5L74,10.2l0.4-0.4L74,9.3l0.3-0.3l0.7,0.7L74.2,10.5z"/>
<path d="M71.8,10.5l-0.3-0.3l0.4-0.4l-0.4-0.4l0.3-0.3l0.7,0.7L71.8,10.5z"/>
<path d="M69.4,10.5l-0.3-0.3l0.4-0.4l-0.4-0.4l0.3-0.3l0.7,0.7L69.4,10.5z"/>
<path d="M67,10.5l-0.3-0.3l0.4-0.4l-0.4-0.4L67,9.1l0.7,0.7L67,10.5z"/>
<path d="M64.5,10.5l-0.3-0.3l0.4-0.4l-0.4-0.4l0.3-0.3l0.7,0.7L64.5,10.5z"/>
<path d="M62.1,10.5l-0.3-0.3l0.4-0.4l-0.4-0.4l0.3-0.3l0.7,0.7L62.1,10.5z"/>
<path d="M59.8,10.5l-0.3-0.3l0.4-0.4l-0.4-0.5l0.3-0.3l0.7,0.7L59.8,10.5z"/>
<path d="M57.3,10.5L57,10.2l0.4-0.4L57,9.4l0.3-0.3L58,9.8L57.3,10.5z"/>
<path d="M54.9,10.5l-0.3-0.3l0.4-0.4l-0.4-0.4l0.3-0.3l0.7,0.7L54.9,10.5z"/>
<path d="M52.5,10.5l-0.3-0.3l0.4-0.4l-0.4-0.4l0.3-0.3l0.7,0.7L52.5,10.5z"/>
<path d="M50.1,10.5l-0.3-0.3l0.4-0.4l-0.4-0.4l0.3-0.3l0.7,0.7L50.1,10.5z"/>
<path d="M47.7,10.5l-0.3-0.3l0.4-0.4l-0.4-0.4l0.3-0.3l0.7,0.7L47.7,10.5z"/>
<path d="M45.3,10.5l-0.3-0.3l0.4-0.4l-0.4-0.5l0.3-0.3L46,9.7L45.3,10.5z"/>
<path d="M42.8,10.5l-0.3-0.3L43,9.8l-0.4-0.4l0.3-0.3l0.7,0.7L42.8,10.5z"/>
<path d="M40.5,10.5l-0.3-0.3l0.4-0.4l-0.4-0.4l0.3-0.3l0.7,0.7L40.5,10.5z"/>
</svg>
